<svg xmlns="http://www.w3.org/2000/svg" style="display: none"> 
    <symbol id="user" viewBox="0 0 24 24" fill="currentColor"> 
        <path  fill-rule="evenodd" clip-rule="evenodd" d="M12 12c1.66 0 3-1.34 3-3s-1.34-3-3-3-3 1.34-3 3 1.34 3 3 3Zm0 1.898c-2 0-6 1.1-6 3.1v1h12v-1c0-2-4-3.1-6-3.1Z"/>
    </symbol>
    <symbol id="add" viewBox="0 0 24 24" fill="currentColor">
        <path  d="M19 13h-6v6h-2v-6H5v-2h6V5h2v6h6v2Z"/>
    </symbol>
    <symbol id="arrowRight" viewBox="0 0 24 24" fill="currentColor">
        <path d="M13.705 4.705a.997.997 0 0 0-1.41 1.41L17.17 11H4a1 1 0 1 0 0 2h13.17l-4.876 4.885a.997.997 0 0 0 1.411 1.41l6.588-6.588a1 1 0 0 0 0-1.414l-6.588-6.588Z"/>
    </symbol>
    <symbol id="attachment" viewBox="0 0 24 24" fill="currentColor">
        <path d="M19.778 6.264a4.094 4.094 0 0 0-5.746 0L7.69 12.538a1.995 1.995 0 0 0 0 2.843c.794.785 2.08.785 2.873 0l6.342-6.274 1.437 1.421L12 16.802a4.094 4.094 0 0 1-5.746 0 3.99 3.99 0 0 1 0-5.685l6.341-6.274c2.38-2.355 6.24-2.355 8.62 0a5.985 5.985 0 0 1 0 8.528l-6.342 6.274c-3.173 3.14-8.319 3.14-11.493 0a7.98 7.98 0 0 1 0-11.37L9.722 2l1.436 1.421-6.341 6.275a5.985 5.985 0 0 0 0 8.528c2.38 2.355 6.24 2.355 8.62 0l6.341-6.274a3.99 3.99 0 0 0 0-5.686Z"/>
    </symbol>
    <symbol id="chevronDown" viewBox="0 0 24 24" fill="currentColor">
        <path d="M18 9.41 16.59 8 12 12.58 7.41 8 6 9.41l6 6 6-6Z"/>
    </symbol>
    <symbol id="chevronLeft" viewBox="0 0 24 24" fill="currentColor">
        <path d="M15.41 7.41 14 6l-6 6 6 6 1.41-1.41L10.83 12l4.58-4.59Z"/>
    </symbol>
    <symbol id="chevronRight" viewBox="0 0 24 24" fill="currentColor">
        <path d="M10 6 8.59 7.41 13.17 12l-4.58 4.59L10 18l6-6-6-6Z"/>
    </symbol>
    <symbol id="chevronUp" viewBox="0 0 24 24" fill="currentColor">
        <path d="M6 13.59 7.41 15 12 10.42 16.59 15 18 13.59l-6-6-6 6Z"/>
    </symbol>
    <symbol id="close" viewBox="0 0 24 24" fill="currentColor">
        <path d="M18 7.4 13.4 12l4.6 4.6-1.4 1.4-4.6-4.6L7.4 18 6 16.6l4.6-4.6L6 7.4 7.4 6l4.6 4.6L16.6 6 18 7.4Z"/>
    </symbol>
    <symbol id="download" viewBox="0 0 24 24" fill="currentColor">
        <path fill-rule="evenodd" clip-rule="evenodd" d="M4 18v1h16v-1a1 1 0 1 1 2 0v1a2 2 0 0 1-2 2H4a2 2 0 0 1-2-2v-1a1 1 0 1 1 2 0Zm9-15v8.62l1.78-1.779a1.06 1.06 0 0 1 1.5 1.5l-4.25 4.25-4.25-4.25a1.06 1.06 0 0 1 1.5-1.5L11 11.56V3h2Z"/>
    </symbol>
    <symbol id="fundProfile" viewBox="0 0 24 24" fill="currentColor">
        <path d="M2.465 14.867v4.466c0 .405.328.733.733.733h17.6a.733.733 0 0 0 .734-.733v-4.466l-3.96.566c-1 .143-2.003.247-3.01.312a1.467 1.467 0 0 1-1.464 1.388h-2.2a1.467 1.467 0 0 1-1.464-1.388 39.394 39.394 0 0 1-3.01-.312l-3.96-.566Z"/><path fill-rule="evenodd" clip-rule="evenodd" d="M11.268 2.836a3.3 3.3 0 0 0-3.3 3.3v.733h-5.5a.733.733 0 0 0-.734.734v5.23c0 .365.269.675.63.726l4.244.607c3.577.51 7.209.51 10.786 0l4.244-.607a.733.733 0 0 0 .63-.726v-5.23a.733.733 0 0 0-.734-.734h-5.5v-.733a3.3 3.3 0 0 0-3.3-3.3h-1.466Zm2.566 4.033v-.733a1.1 1.1 0 0 0-1.1-1.1h-1.466a1.1 1.1 0 0 0-1.1 1.1v.733h3.666Z"/>
    </symbol>
    <symbol id="edit" viewBox="0 0 24 24" fill="currentColor">
        <path d="m18.633 8.22 1.083-1.098a1 1 0 0 0-.004-1.41L18.288 4.29a1 1 0 0 0-1.41-.004l-1.097 1.083 2.852 2.851ZM17.227 9.642 7 20.001H4v-3L14.358 6.773l2.87 2.87Z"/>
    </symbol>
    <symbol id="filters" viewBox="0 0 24 24" fill="currentColor">
        <path fill-rule="evenodd" clip-rule="evenodd" d="M3 8V6h18v2H3Zm0 5h14v-2H3v2Zm0 5h10v-2H3v2Z"/>
    </symbol>
    <symbol id="link" viewBox="0 0 24 24" fill="currentColor">
        <path d="M16.977 4.96a3.027 3.027 0 0 0-4.424 0L9.235 8.44c-1.222 1.282-1.222 3.359 0 4.64l.553.58c.305.32.8.32 1.106 0a.849.849 0 0 0 0-1.16l-.277-.29a2.121 2.121 0 0 1 0-2.9l2.766-2.9c.763-.8 2.001-.8 2.765 0l.553.58c.764.801.764 2.1 0 2.9l-.83.87a.849.849 0 0 0 0 1.16c.306.32.801.32 1.106 0l1.107-1.16c1.221-1.28 1.221-3.358 0-4.64l-1.107-1.16Z"/><path d="M7.022 20.04a3.027 3.027 0 0 0 4.425 0l3.318-3.48c1.222-1.282 1.222-3.359 0-4.64l-.553-.58a.757.757 0 0 0-1.106 0 .849.849 0 0 0 0 1.16l.277.29c.763.8.763 2.099 0 2.9l-2.766 2.9c-.763.8-2.001.8-2.765 0l-.553-.58a2.122 2.122 0 0 1 0-2.9l.83-.87a.849.849 0 0 0 0-1.16.757.757 0 0 0-1.107 0l-1.106 1.16c-1.221 1.281-1.221 3.358 0 4.64l1.106 1.16Z"/>
    </symbol>
    <symbol id="listView" viewBox="0 0 24 24" fill="currentColor">
        <path fill-rule="evenodd" clip-rule="evenodd" d="M3 5a2 2 0 0 1 2-2h14a2 2 0 0 1 2 2v14a2 2 0 0 1-2 2H5a2 2 0 0 1-2-2V5Zm2 0h14v14H5V5Zm12 2H7v2h10V7ZM7 11h10v2H7v-2Zm10 4H7v2h10v-2Z"/>
    </symbol>
    <symbol id="menu" viewBox="0 0 24 24" fill="currentColor">
        <path fill-rule="evenodd" clip-rule="evenodd" d="M3 8V6h18v2H3Zm0 5h18v-2H3v2Zm0 5h18v-2H3v2Z"/>
    </symbol>
    <symbol id="minus" viewBox="0 0 24 24" fill="currentColor">
        <path d="M19 13H5v-2h14v2Z"/>
    </symbol>
    <symbol id="plateView" viewBox="0 0 24 24" fill="currentColor">
        <path fill-rule="evenodd" clip-rule="evenodd" d="M3 5a2 2 0 0 1 2-2h14a2 2 0 0 1 2 2v14a2 2 0 0 1-2 2H5a2 2 0 0 1-2-2V5Zm2 0h14v14H5V5Zm4 2H7v2h2V7Zm-2 4h2v2H7v-2Zm2 4H7v2h2v-2Zm2-8h2v2h-2V7Zm2 4h-2v2h2v-2Zm-2 4h2v2h-2v-2Zm6-8h-2v2h2V7Zm-2 4h2v2h-2v-2Zm2 4h-2v2h2v-2Z"/>
    </symbol>
    <symbol id="calendar" viewBox="0 0 24 24" fill="currentColor"> 
        <path fill-rule="evenodd" clip-rule="evenodd" d="M6 3h2v1h8V3h2v1h1a2 2 0 0 1 2 2v13a2 2 0 0 1-2 2H5a2 2 0 0 1-2-2V6a2 2 0 0 1 2-2h1V3ZM5 6v3h14V6H5Zm0 5v8h14v-8H5Z"/>
    </symbol>
    <symbol id="warning" viewBox="0 0 24 24" fill="currentColor">
        <path fill-rule="evenodd" clip-rule="evenodd" d="M12 2c5.523 0 10 4.477 10 10s-4.477 10-10 10S2 17.523 2 12 6.477 2 12 2Zm0 2a8 8 0 1 0 0 16 8 8 0 0 0 0-16Zm1 3v6h-2V7h2Zm0 8v2h-2v-2h2Z"/>
    </symbol>
    <symbol id="marker" viewBox="0 0 24 24" fill="currentColor">
        <path fill-rule="evenodd" clip-rule="evenodd" d="M12 22s8-6 8-12a8 8 0 1 0-16 0c0 6 8 12 8 12Zm0-10a2 2 0 1 0 0-4 2 2 0 0 0 0 4Z"/>
    </symbol>
    <symbol id="info" viewBox="0 0 24 24" fill="currentColor">
        <path fill-rule="evenodd" clip-rule="evenodd" d="M12 2c5.523 0 10 4.477 10 10s-4.477 10-10 10S2 17.523 2 12 6.477 2 12 2Zm0 2a8 8 0 1 0 0 16 8 8 0 0 0 0-16Zm1 7v6h-2v-6h2Zm0-4v2h-2V7h2Z"/>
    </symbol>
    <symbol id="camera" viewBox="0 0 24 24" fill="currentColor">
        <path d="M9 3h6l2 2h4a1 1 0 0 1 1 1v14a1 1 0 0 1-1 1H3a1 1 0 0 1-1-1V6a1 1 0 0 1 1-1h4l2-2Zm3 16a6 6 0 1 0 0-12 6 6 0 0 0 0 12Zm0-2a4 4 0 1 1 0-8 4 4 0 0 1 0 8Z"/>
    </symbol>
    <symbol id="filledInfo" viewBox="0 0 24 24" fill="currentColor">
        <path fill-rule="evenodd" clip-rule="evenodd" d="M22 12c0-5.523-4.477-10-10-10S2 6.477 2 12s4.477 10 10 10 10-4.477 10-10Zm-9-5v2h-2V7h2Zm0 4v6h-2v-6h2Z"/>
    </symbol>
    <symbol id="profile" viewBox="0 0 24 24" fill="currentColor">
        <path fill-rule="evenodd" clip-rule="evenodd" d="M12 2C6.48 2 2 6.48 2 12s4.48 10 10 10 10-4.48 10-10S17.52 2 12 2Zm0 3c1.66 0 3 1.34 3 3s-1.34 3-3 3-3-1.34-3-3 1.34-3 3-3ZM6 15.978a7.2 7.2 0 0 0 12 0c-.03-1.99-4.01-3.08-6-3.08-2 0-5.97 1.09-6 3.08Z"/>
    </symbol>
    <symbol id="notify" viewBox="0 0 24 24" fill="currentColor">
        <path fill-rule="evenodd" clip-rule="evenodd" d="M18 11v5l2 2v1H4v-1l2-2v-5c0-3.08 1.63-5.64 4.5-6.32V4c0-.83.67-1.5 1.5-1.5s1.5.67 1.5 1.5v.68C16.36 5.36 18 7.93 18 11Zm-4 9a2 2 0 1 1-4 0h4Z"/>
    </symbol>
    <symbol id="tasks" viewBox="0 0 24 24" fill="currentColor">
        <path fill-rule="evenodd" clip-rule="evenodd" d="M19 4h-4.18C14.4 2.84 13.3 2 12 2c-1.3 0-2.4.84-2.82 2H5c-1.1 0-2 .9-2 2v14c0 1.1.9 2 2 2h14c1.1 0 2-.9 2-2V6c0-1.1-.9-2-2-2Zm-7 0c.55 0 1 .45 1 1s-.45 1-1 1-1-.45-1-1 .45-1 1-1ZM7 18h7v-2H7v2Zm10-4H7v-2h10v2ZM7 10h10V8H7v2Z"/>
    </symbol>
    <symbol id="bonuses" viewBox="0 0 24 24" fill="currentColor">
        <path fill-rule="evenodd" clip-rule="evenodd" d="M7 4h10l5 5-10 12L2 9l5-5Zm5 11.533 5.265-6.318H6.735L12 15.533Z"/>
    </symbol>
    <symbol id="settings" viewBox="0 0 24 24" fill="currentColor">
        <path fill-rule="evenodd" clip-rule="evenodd" d="M19 3H5a2 2 0 0 0-2 2v14a2 2 0 0 0 2 2h14a2 2 0 0 0 2-2V5a2 2 0 0 0-2-2Zm-7 7c-1.1 0-2 .9-2 2s.9 2 2 2 2-.9 2-2-.9-2-2-2Zm5.2 2.68c.03-.22.05-.45.05-.68 0-.23-.02-.46-.05-.69l1.48-1.16c.13-.11.17-.3.08-.45l-1.4-2.42a.354.354 0 0 0-.43-.15l-1.74.7c-.36-.28-.75-.51-1.18-.69l-.26-1.85A.364.364 0 0 0 13.4 5h-2.8c-.17 0-.32.13-.35.3l-.26 1.85c-.42.18-.82.41-1.18.69l-1.74-.7c-.16-.06-.34 0-.43.15l-1.4 2.42c-.09.15-.05.34.08.45l1.48 1.16c-.03.22-.05.45-.05.68 0 .23.02.46.05.69l-1.48 1.16c-.13.11-.17.3-.08.45l1.4 2.42c.09.15.27.21.43.15l1.74-.7c.36.28.75.51 1.18.69l.26 1.85c.03.16.18.29.35.29h2.8c.17 0 .32-.13.35-.3l.26-1.85c.42-.18.82-.41 1.18-.69l1.74.7c.16.06.34 0 .43-.15l1.4-2.42c.09-.15.05-.34-.08-.45l-1.48-1.16Z"/>
    </symbol>
    <symbol id="award" viewBox="0 0 24 24" fill="currentColor">
        <path d="M19 5h-2V3H7v2H5c-1.1 0-2 .9-2 2v1c0 2.55 1.92 4.63 4.39 4.94A5.01 5.01 0 0 0 11 15.9V19H7v2h10v-2h-4v-3.1a5.01 5.01 0 0 0 3.61-2.96C19.08 12.63 21 10.55 21 8V7c0-1.1-.9-2-2-2ZM5 8V7h2v3.82C5.84 10.4 5 9.3 5 8Zm14 0c0 1.3-.84 2.4-2 2.82V7h2v1Z"/>
    </symbol>
    <symbol id="search" viewBox="0 0 24 24" fill="currentColor">
        <path fill-rule="evenodd" clip-rule="evenodd" d="M14.71 14h.79l4.99 5L19 20.49l-5-4.99v-.79l-.27-.28A6.471 6.471 0 0 1 9.5 16 6.5 6.5 0 1 1 16 9.5c0 1.61-.59 3.09-1.57 4.23l.28.27ZM5 9.5C5 11.99 7.01 14 9.5 14S14 11.99 14 9.5 11.99 5 9.5 5 5 7.01 5 9.5Z"/>
    </symbol>
    <symbol id="reply" viewBox="0 0 24 24" fill="currentColor">
        <path d="M10.41 5.41 9 4l-6 6 6 6 1.41-1.41L5.83 10l4.58-4.59Z"/><path d="M4 11.001v-2L13 9c5 0 8 3 8 8.001V19h-2v-1.999c0-4.001-2-6-6-6H4Z"/>
    </symbol>
    <symbol id="procharity" viewBox="0 0 24 24" fill="currentColor">
        <path fill-rule="evenodd" clip-rule="evenodd" d="M14.398 14.259v6.74h-4.68v-6.74H4V9.641h16.115v4.619l-5.717-.001ZM9.719 7.679h4.678V3H9.72v4.679Z"/>
    </symbol>
    <symbol id="comment" viewBox="0 0 24 24" fill="currentColor">
        <path fill-rule="evenodd" clip-rule="evenodd" d="M5 3a2 2 0 0 0-2 2v10a2 2 0 0 0 2 2h1v4l6.5-4H19a2 2 0 0 0 2-2V5a2 2 0 0 0-2-2H5Zm2 4h10v2H7V7Zm8 4H7v2h8v-2Z"/>
    </symbol>
    <symbol id="more" viewBox="0 0 24 24" fill="currentColor">
        <path d="M12.667 5.636h-1.334c-.368 0-.666.285-.666.637v1.272c0 .352.298.637.666.637h1.334c.368 0 .666-.285.666-.637V6.273c0-.352-.298-.637-.666-.637ZM12.667 10.727h-1.334c-.368 0-.666.285-.666.637v1.272c0 .352.298.637.666.637h1.334c.368 0 .666-.285.666-.637v-1.272c0-.352-.298-.637-.666-.637ZM12.667 15.818h-1.334c-.368 0-.666.285-.666.636v1.273c0 .352.298.637.666.637h1.334c.368 0 .666-.285.666-.637v-1.273c0-.35-.298-.636-.666-.636Z"/><path fill-rule="evenodd" clip-rule="evenodd" d="M10 6.273C10 5.57 10.597 5 11.333 5h1.334C13.403 5 14 5.57 14 6.273v1.272c0 .703-.597 1.273-1.333 1.273h-1.334c-.736 0-1.333-.57-1.333-1.273V6.273Zm2.667.636a.636.636 0 0 0-.637-.636h-.06a.636.636 0 1 0 0 1.272h.06a.636.636 0 0 0 .637-.636ZM10 11.364c0-.703.597-1.273 1.333-1.273h1.334c.736 0 1.333.57 1.333 1.273v1.272c0 .703-.597 1.273-1.333 1.273h-1.334c-.736 0-1.333-.57-1.333-1.273v-1.272Zm2.667.636a.636.636 0 0 0-.637-.636h-.06a.636.636 0 1 0 0 1.272h.06a.636.636 0 0 0 .637-.636ZM10 16.454c0-.702.597-1.272 1.333-1.272h1.334c.736 0 1.333.57 1.333 1.272v1.273C14 18.43 13.403 19 12.667 19h-1.334C10.597 19 10 18.43 10 17.727v-1.273Zm2.667.637a.636.636 0 0 0-.637-.637h-.06a.636.636 0 0 0 0 1.273h.06a.636.636 0 0 0 .637-.636Z"/>
    </symbol>
    <symbol id="favorVolunteers" viewBox="0 0 24 24" fill="currentColor">
        <path d="M11.338 2.225a.714.714 0 0 1 1.325 0l2.125 5.292c.102.255.341.428.615.446l5.69.386a.714.714 0 0 1 .409 1.26l-4.377 3.657a.714.714 0 0 0-.234.722l1.391 5.53a.714.714 0 0 1-1.072.78l-4.83-3.033a.714.714 0 0 0-.76 0l-4.829 3.032a.714.714 0 0 1-1.072-.779l1.391-5.53a.714.714 0 0 0-.234-.722L2.499 9.61a.714.714 0 0 1 .41-1.26l5.69-.386a.714.714 0 0 0 .614-.447l2.125-5.292Z"/>
    </symbol>
    <symbol id="team" viewBox="0 0 24 24" fill="currentColor">
        <path d="M14.77 11.89A3.988 3.988 0 0 0 16 9c0-.662-.16-1.286-.443-1.835.294-.107.612-.165.943-.165a2.746 2.746 0 0 1 2.75 2.75 2.746 2.746 0 0 1-2.75 2.75 2.74 2.74 0 0 1-1.73-.61ZM11 18h8v-1.22c0-1.03-.715-1.865-1.69-2.486 1.195.142 2.71.568 3.69 1.251V18h1-11ZM9.23 11.89A3.988 3.988 0 0 1 8 9c0-.662.16-1.286.443-1.835A2.754 2.754 0 0 0 7.5 7a2.746 2.746 0 0 0-2.75 2.75A2.746 2.746 0 0 0 7.5 12.5a2.74 2.74 0 0 0 1.73-.61Z"/><path d="M13 18H5v-1.22c0-1.03.715-1.865 1.69-2.486-1.195.142-2.71.568-3.69 1.251V18H2h11Z"/><path fill-rule="evenodd" clip-rule="evenodd" d="M11.997 12c1.66 0 3-1.34 3-3s-1.34-3-3-3-3 1.34-3 3 1.34 3 3 3ZM12 13.5c-2 0-6 1.207-6 3.402V18h12v-1.098c0-2.195-4-3.402-6-3.402Z"/>
    </symbol>
    <symbol id="company" viewBox="0 0 24 24" fill="currentColor">
        <path d="M7 7h2v2H7V7ZM9 11H7v2h2v-2ZM11 7h2v2h-2V7ZM13 11h-2v2h2v-2Z"/><path fill-rule="evenodd" clip-rule="evenodd" d="M5 3a2 2 0 0 0-2 2v14a2 2 0 0 0 2 2h14a2 2 0 0 0 2-2V9a2 2 0 0 0-2-2h-2V5a2 2 0 0 0-2-2H5Zm12 10v2h1.998v-2H17Zm0 6v-2h1.998v2H17Zm0-8h1.998V9H17v2Zm-2 8V5H5v14h2v-4h6v4h2Zm-4 0v-2H9v2h2Z"/>
    </symbol>
    <symbol id="moveGrabber" viewBox="0 0 24 24" fill="currentColor">
        <path fill-rule="evenodd" clip-rule="evenodd" d="M10.937 4.97v4.44H3v2h18v-2h-7.87V5.03l1.885 1.72c.454.413 1.19.413 1.644 0a.996.996 0 0 0 0-1.5L12 1 7.34 5.25a.996.996 0 0 0 0 1.5c.455.413 1.191.413 1.645 0l1.952-1.78Zm-.067 10.44H3v-2h18v2h-7.937v3.62l1.952-1.78a1.244 1.244 0 0 1 1.644 0 .996.996 0 0 1 0 1.5L12 23l-4.66-4.25a.996.996 0 0 1 0-1.5 1.244 1.244 0 0 1 1.645 0l1.885 1.72v-3.56Z"/>
    </symbol>
    <symbol id="setting" viewBox="0 0 24 24" fill="currentColor">
        <path fill-rule="evenodd" clip-rule="evenodd" d="M13.8056 5.64764C13.8241 5.88179 13.9787 6.0812 14.1939 6.17534C14.4063 6.26822 14.6146 6.3737 14.8178 6.49175C15.0143 6.60587 15.2029 6.73034 15.3831 6.86417C15.5729 7.00517 15.8247 7.04003 16.0379 6.93794L17.27 6.34805C17.5055 6.23531 17.7886 6.2864 17.9572 6.48578C18.6068 7.25411 19.1116 8.13785 19.4456 9.08819C19.5313 9.33218 19.435 9.59987 19.2224 9.74717L18.0914 10.5309C17.8987 10.6645 17.8041 10.8977 17.8306 11.1307C17.8568 11.3609 17.8701 11.5938 17.8701 11.8281C17.8701 12.0625 17.8567 12.2954 17.8305 12.5258C17.804 12.7588 17.8987 12.9921 18.0914 13.1256L19.2218 13.909C19.4344 14.0563 19.5307 14.3241 19.4449 14.5681C19.1107 15.5184 18.6057 16.402 17.9558 17.1703C17.7872 17.3696 17.5041 17.4206 17.2687 17.3079L16.0376 16.7185C15.8243 16.6164 15.5726 16.6513 15.3828 16.7922C15.2026 16.926 15.0142 17.0503 14.8178 17.1644C14.6146 17.2825 14.4063 17.3879 14.194 17.4808C13.9787 17.5749 13.8241 17.7743 13.8056 18.0085L13.6966 19.3856C13.6761 19.6442 13.4922 19.8625 13.2372 19.9101C12.246 20.095 11.2283 20.0952 10.237 19.9104C9.98202 19.8629 9.798 19.6445 9.77754 19.3859L9.66849 18.0086C9.64995 17.7745 9.49536 17.575 9.28014 17.4809C9.06774 17.388 8.85933 17.2825 8.65602 17.1644C8.45973 17.0503 8.27127 16.926 8.09115 16.7923C7.90134 16.6513 7.64958 16.6165 7.43634 16.7185L6.20433 17.3084C5.96892 17.4211 5.68587 17.3701 5.51727 17.1709C4.86735 16.4027 4.36233 15.5192 4.02798 14.569C3.94212 14.325 4.03842 14.0572 4.25106 13.9098L5.38248 13.1258C5.5752 12.9922 5.66985 12.7589 5.64333 12.526C5.61708 12.2956 5.6037 12.0626 5.6037 11.8281C5.6037 11.5937 5.61708 11.3608 5.6433 11.1305C5.66979 10.8976 5.57514 10.6643 5.38245 10.5308L4.25043 9.7463C4.03785 9.599 3.94155 9.33128 4.02732 9.08729C4.36143 8.13704 4.86618 7.25345 5.51586 6.48521C5.68443 6.28586 5.96754 6.2348 6.20301 6.34754L7.43601 6.93785C7.64925 7.03994 7.90101 7.00508 8.09085 6.86411C8.27106 6.73028 8.45961 6.60587 8.65602 6.49175C8.85933 6.37364 9.06774 6.26813 9.28017 6.17525C9.49539 6.08111 9.65001 5.8817 9.66852 5.64752L9.77772 4.26842C9.79818 4.00982 9.9822 3.79142 10.2372 3.7439C11.2284 3.55922 12.2459 3.55931 13.237 3.74423C13.492 3.79178 13.6759 4.01015 13.6964 4.26872L13.8056 5.64764ZM13.2773 9.16001C12.3248 8.60672 11.1488 8.60672 10.1964 9.16001C9.25158 9.70889 8.67021 10.7355 8.67021 11.8282C8.67021 12.9208 9.25158 13.9475 10.1964 14.4963C11.1488 15.0496 12.3248 15.0496 13.2773 14.4963C14.222 13.9475 14.8034 12.9208 14.8034 11.8282C14.8034 10.7355 14.222 9.70889 13.2773 9.16001Z"/>
    </symbol>
    <symbol id="wrench" viewBox="0 0 24 24" fill="currentColor">
        <path fill-rule="evenodd" clip-rule="evenodd" d="M17.91 3.377a4.97 4.97 0 0 0-5.423 1.092 5.033 5.033 0 0 0-1.326 4.7c-.06.05-.117.104-.173.16L3.75 16.607c-1 1.005-1 2.634 0 3.64a2.55 2.55 0 0 0 3.619 0l7.238-7.279c.037-.037.072-.075.106-.113l.01.002a4.968 4.968 0 0 0 4.816-1.297 5.033 5.033 0 0 0 1.086-5.453l-2.35 2.362v-.001l-1.01 1.015-2.139-.576-.573-2.151 1.01-1.015-.002-.001 2.35-2.363Z"/>
    </symbol>
    <symbol id="loader" viewBox="0 0 24 24" fill="currentColor">
        <path d="M12.4 4.17557C12.4 3.63678 11.9618 3.19415 11.4266 3.25659C10.1098 3.41021 8.84317 3.87401 7.73321 4.61566C6.35184 5.53866 5.27519 6.85056 4.63941 8.38546C4.00364 9.92036 3.83729 11.6093 4.1614 13.2388C4.48552 14.8682 5.28554 16.3649 6.4603 17.5397C7.63506 18.7145 9.1318 19.5145 10.7612 19.8386C12.3907 20.1627 14.0796 19.9964 15.6145 19.3606C17.1494 18.7248 18.4613 17.6482 19.3843 16.2668C20.126 15.1568 20.5898 13.8902 20.7434 12.5734C20.8059 12.0382 20.3632 11.6 19.8244 11.6C19.2856 11.6 18.8564 12.0392 18.7752 12.5719C18.6334 13.502 18.2891 14.3939 17.762 15.1828C17.0534 16.2433 16.0462 17.0699 14.8679 17.558C13.6895 18.0461 12.3928 18.1738 11.1419 17.9249C9.89094 17.6761 8.74186 17.0619 7.83997 16.16C6.93808 15.2581 6.32389 14.1091 6.07506 12.8581C5.82623 11.6072 5.95394 10.3105 6.44204 9.13213C6.93013 7.95376 7.7567 6.94658 8.81721 6.23797C9.60606 5.71088 10.498 5.36659 11.4281 5.2248C11.9608 5.1436 12.4 4.71437 12.4 4.17557Z"/>
    </symbol>
    <symbol id="socialLogo" viewBox="0 0 23 18" fill="currentColor">
        <path d="M1.98947 8.03364C7.80556 5.56398 11.6839 3.93584 13.6244 3.1492C19.165 0.903178 20.3162 0.513021 21.0666 0.500137C21.2317 0.497304 21.6007 0.537168 21.8397 0.726205C22.0416 0.885825 22.0971 1.10145 22.1237 1.25278C22.1502 1.40412 22.1833 1.74887 22.157 2.01825C21.8568 5.09287 20.5576 12.5542 19.8967 15.9978C19.617 17.4549 19.0664 17.9435 18.5332 17.9913C17.3747 18.0952 16.4949 17.2451 15.3727 16.5282C13.6168 15.4064 12.6248 14.708 10.9204 13.6133C8.95057 12.3482 10.2275 11.6529 11.3501 10.5166C11.6439 10.2192 16.7486 5.69386 16.8474 5.28335C16.8598 5.23201 16.8712 5.04063 16.7546 4.93957C16.6379 4.83852 16.4657 4.87307 16.3415 4.90056C16.1654 4.93951 13.3603 6.74654 7.9261 10.3216C7.12987 10.8545 6.40868 11.1141 5.76251 11.1005C5.05016 11.0855 3.67988 10.708 2.66122 10.3853C1.4118 9.98943 0.418779 9.78015 0.505249 9.10791C0.550288 8.75777 1.04503 8.39968 1.98947 8.03364Z"/>
    </symbol>
    <symbol id="email" viewBox="0 0 20 16" fill="currentColor">
        <path d="M2 16C1.45 16 0.979002 15.804 0.587002 15.412C0.195002 15.02 -0.000664969 14.5493 1.69779e-06 14V2C1.69779e-06 1.45 0.196002 0.979002 0.588002 0.587002C0.980002 0.195002 1.45067 -0.000664969 2 1.69779e-06H18C18.55 1.69779e-06 19.021 0.196001 19.413 0.588001C19.805 0.980001 20.0007 1.45067 20 2V14C20 14.55 19.804 15.021 19.412 15.413C19.02 15.805 18.5493 16.0007 18 16H2ZM10 8.825C10.0833 8.825 10.171 8.81234 10.263 8.787C10.355 8.76167 10.4423 8.72434 10.525 8.675L17.6 4.25C17.7333 4.16667 17.8333 4.06234 17.9 3.937C17.9667 3.81167 18 3.67434 18 3.525C18 3.19167 17.8583 2.94167 17.575 2.775C17.2917 2.60834 17 2.61667 16.7 2.8L10 7L3.3 2.8C3 2.61667 2.70834 2.61267 2.425 2.788C2.14167 2.96334 2 3.209 2 3.525C2 3.69167 2.03333 3.83767 2.1 3.963C2.16667 4.08834 2.26667 4.184 2.4 4.25L9.475 8.675C9.55834 8.725 9.646 8.76267 9.738 8.788C9.83 8.81334 9.91734 8.82567 10 8.825Z"/>
    </symbol>
    <symbol id="show" viewBox="0 0 24 24" fill="currentColor">
        <path fill-rule="evenodd" clip-rule="evenodd" d="M10.9233 14.1658C11.607 14.4951 12.4034 14.4951 13.0871 14.1658C13.7708 13.8366 14.2673 13.2139 14.4362 12.4741C14.6051 11.7343 14.4278 10.9579 13.9547 10.3646C13.4816 9.77132 12.764 9.42578 12.0052 9.42578C11.2464 9.42578 10.5289 9.77132 10.0557 10.3646C9.58261 10.9579 9.4054 11.7343 9.57427 12.4741C9.74311 13.2139 10.2397 13.8366 10.9233 14.1658Z"/>
        <path fill-rule="evenodd" clip-rule="evenodd" d="M20.0338 13.9749C20.5431 13.3363 20.9691 12.6462 21.3082 11.9208C20.9691 11.1955 20.5432 10.5056 20.0341 9.86715C18.0852 7.42335 15.1296 6 12.0038 6C8.87811 6 5.92248 7.42335 3.97362 9.86715C3.46437 10.5057 3.03834 11.1958 2.69922 11.9213C3.03828 12.6466 3.46425 13.3365 3.97338 13.9749C5.92224 16.4187 8.87787 17.8421 12.0036 17.8421C15.1293 17.8421 18.085 16.4187 20.0338 13.9749ZM13.7364 15.5191C12.6415 16.0464 11.366 16.0464 10.271 15.5191C9.17604 14.9917 8.3808 13.9945 8.11035 12.8097C7.83993 11.6248 8.12376 10.3813 8.88147 9.43116C9.63921 8.48097 10.7884 7.92756 12.0037 7.92756C13.219 7.92756 14.3682 8.48097 15.1259 9.43116C15.8837 10.3813 16.1675 11.6248 15.8971 12.8097C15.6266 13.9945 14.8314 14.9917 13.7364 15.5191Z"/>
    </symbol>
    <symbol id="success" viewBox="0 0 24 24" fill="currentColor">
        <path fill-rule="evenodd" clip-rule="evenodd" d="M9 18C13.9706 18 18 13.9706 18 9C18 4.02944 13.9706 0 9 0C4.02944 0 0 4.02944 0 9C0 13.9706 4.02944 18 9 18ZM5.28195 8.52431C5.66634 8.12775 6.29943 8.11787 6.69599 8.50226L8.13209 9.89425L11.6121 6.30401C11.9964 5.90744 12.6295 5.89757 13.0261 6.28195C13.4227 6.66634 13.4325 7.29943 13.0482 7.69599L8.87219 12.0043C8.48781 12.4009 7.85472 12.4107 7.45815 12.0263L5.30401 9.93836C4.90744 9.55397 4.89757 8.92088 5.28195 8.52431Z"/>
    </symbol>
    <symbol id="clock" viewBox="0 0 24 24" fill="currentColor">
        <path fill-rule="evenodd" clip-rule="evenodd" d="M12.4441 0.685091C10.2389 -0.228364 7.76109 -0.228364 5.55585 0.685091C3.35058 1.59854 1.59854 3.35059 0.685086 5.55586C-0.228362 7.76109 -0.228362 10.2389 0.685086 12.4442C1.59854 14.6494 3.35058 16.4015 5.55585 17.3149C7.76109 18.2284 10.2389 18.2284 12.4441 17.3149C14.6494 16.4015 16.4015 14.6494 17.3149 12.4442C18.2284 10.2389 18.2284 7.76109 17.3149 5.55586C16.4015 3.35059 14.6494 1.59854 12.4441 0.685091ZM12.4389 6.00929C12.7453 5.6087 12.6691 5.03551 12.2685 4.72901C11.8679 4.42252 11.2947 4.49881 10.9882 4.8994L9.44558 6.91568C9.30196 6.88515 9.153 6.86907 9.0003 6.86907C7.82341 6.86907 6.86934 7.82314 6.86934 9.00003C6.86934 10.1769 7.82341 11.131 9.0003 11.131C9.45529 11.131 9.87701 10.9884 10.2231 10.7454L14.1935 13.0041C14.6319 13.2535 15.1895 13.1003 15.4389 12.6619C15.6883 12.2235 15.5351 11.6659 15.0967 11.4165L11.1255 9.15736C11.1293 9.10543 11.1313 9.05294 11.1313 9.00003C11.1313 8.649 11.0464 8.31779 10.896 8.02582L12.4389 6.00929Z"/>
    </symbol>
    <symbol id="warningNotification" viewBox="0 0 24 24" fill="currentColor">
        <path fill-rule="evenodd" clip-rule="evenodd" d="M18 9C18 13.9706 13.9706 18 9 18C4.02944 18 0 13.9706 0 9C0 4.02944 4.02944 0 9 0C13.9706 0 18 4.02944 18 9ZM8 4C8 3.44772 8.44771 3 9 3C9.55228 3 10 3.44772 10 4V11C10 11.5523 9.55228 12 9 12C8.44771 12 8 11.5523 8 11V4ZM9 13C8.44771 13 8 13.4477 8 14C8 14.5523 8.44771 15 9 15C9.55228 15 10 14.5523 10 14C10 13.4477 9.55228 13 9 13Z"/>
    </symbol>
    <symbol id="eyeCrossed" viewBox="0 0 24 24" fill="currentColor">
        <path fill-rule="evenodd" clip-rule="evenodd" d="M15.3302 6.55317C14.272 6.19098 13.1498 6 12.0048 6C8.87909 6 5.92346 7.42335 3.9746 9.86715C3.46535 10.5057 3.03932 11.1958 2.7002 11.9213C3.03926 12.6466 3.46523 13.3365 3.97436 13.9749C4.56173 14.7115 5.24054 15.3553 5.98793 15.8954L8.35079 13.5326C8.24897 13.3018 8.16845 13.0599 8.11132 12.8097C7.8409 11.6248 8.12473 10.3813 8.88244 9.43116C9.64018 8.48097 10.7894 7.92756 12.0047 7.92756C12.5667 7.92756 13.1146 8.04591 13.6162 8.26716L15.3302 6.55317Z"/>
        <path fill-rule="evenodd" clip-rule="evenodd" d="M12.4204 9.46268C12.284 9.43958 12.1448 9.42773 12.0043 9.42773C11.2454 9.42773 10.5279 9.77327 10.0548 10.3666C9.61112 10.9228 9.42767 11.6402 9.54572 12.3374L12.4204 9.46268Z"/>
        <path fill-rule="evenodd" clip-rule="evenodd" d="M11.7266 14.4002L14.4822 11.6445C14.5131 11.9195 14.4983 12.2009 14.4352 12.4771C14.2664 13.2169 13.7698 13.8396 13.0862 14.1688C12.6587 14.3747 12.1871 14.4518 11.7266 14.4002Z"/>
        <path fill-rule="evenodd" clip-rule="evenodd" d="M10.5036 15.6222C11.5438 16.0441 12.7184 16.0098 13.7369 15.5194C14.8318 14.9921 15.6271 13.9949 15.8975 12.81C16.0815 12.0038 16.0089 11.1705 15.705 10.4208L18.1121 8.01367C18.8236 8.53984 19.4711 9.16102 20.0345 9.86749C20.5436 10.5059 20.9696 11.1958 21.3086 11.9211C20.9695 12.6466 20.5435 13.3367 20.0342 13.9753C18.0854 16.4191 15.1298 17.8424 12.004 17.8424C10.9016 17.8424 9.8203 17.6654 8.79688 17.3289L10.5036 15.6222Z"/>
        <path fill-rule="evenodd" clip-rule="evenodd" d="M20.9343 4.27045C21.2271 4.56334 21.2271 5.03824 20.9343 5.33113L6.53425 19.7311C6.24133 20.024 5.76646 20.024 5.47357 19.7311C5.18068 19.4382 5.18068 18.9633 5.47357 18.6705L19.8736 4.27045C20.1665 3.97756 20.6413 3.97756 20.9343 4.27045Z"/>
    </symbol>
    <symbol id="question" viewBox="0 0 24 24" fill="currentColor">
        <path fill-rule="evenodd" clip-rule="evenodd" d="M17.4016 8.99961C17.4016 13.6388 13.6408 17.3996 9.00156 17.3996C4.36236 17.3996 0.601562 13.6388 0.601562 8.99961C0.601562 4.36041 4.36236 0.599609 9.00156 0.599609C13.6408 0.599609 17.4016 4.36041 17.4016 8.99961ZM9.00156 4.94961C7.92459 4.94961 7.05156 5.82267 7.05156 6.89961V7.05207C7.05156 7.46628 6.71577 7.80207 6.30156 7.80207C5.88735 7.80207 5.55156 7.46628 5.55156 7.05207V6.89961C5.55156 4.99422 7.09617 3.44961 9.00156 3.44961H9.23343C11.0108 3.44961 12.4516 4.89042 12.4516 6.66774C12.4516 7.80312 11.8533 8.85447 10.8772 9.4344L10.3554 9.74436C9.98103 9.96681 9.75156 10.37 9.75156 10.8055V10.9196C9.75156 11.3338 9.41577 11.6696 9.00156 11.6696C8.58735 11.6696 8.25156 11.3338 8.25156 10.9196V10.8055C8.25156 9.84084 8.75991 8.94753 9.58926 8.45478L10.111 8.14482C10.6322 7.83522 10.9516 7.27389 10.9516 6.66774C10.9516 5.71884 10.1823 4.94961 9.23343 4.94961H9.00156ZM9.75156 13.0796C9.75156 12.6654 9.41577 12.3296 9.00156 12.3296C8.58735 12.3296 8.25156 12.6654 8.25156 13.0796V13.5596C8.25156 13.9738 8.58735 14.3096 9.00156 14.3096C9.41577 14.3096 9.75156 13.9738 9.75156 13.5596V13.0796Z"/>
    </symbol>
    <symbol id="telegram" viewBox="0 0 24 24" fill="currentColor">
       <path transform="scale(0.6)" fill-rule="evenodd" clip-rule="evenodd" d="M36.33 19.5791C36.33 28.7829 28.8688 36.2441 19.665 36.2441C10.4612 36.2441 3 28.7829 3 19.5791C3 10.3752 10.4612 2.91406 19.665 2.91406C28.8688 2.91406 36.33 10.3752 36.33 19.5791ZM21.1586 14.8089C18.2688 16.013 9.9363 19.4327 9.9363 19.4327C7.96156 20.2033 9.11745 20.9258 9.11745 20.9258C9.11745 20.9258 10.8032 21.5038 12.2482 21.9372C13.6931 22.3707 14.4638 21.8891 14.4638 21.8891C14.4638 21.8891 17.8353 19.6735 21.255 17.3134C23.6632 15.6759 23.0853 17.0245 22.5072 17.6025C21.255 18.8547 19.1839 20.8295 17.45 22.4189C16.6794 23.0933 17.0647 23.6712 17.4018 23.9602C18.3824 24.7899 20.6919 26.2989 21.7404 26.984C22.0309 27.1738 22.2247 27.3004 22.2665 27.3317C22.5072 27.5244 23.8559 28.3913 24.6747 28.1987C25.4935 28.006 25.5898 26.8982 25.5898 26.8982C25.5898 26.8982 26.2159 22.9487 26.794 19.3364C26.901 18.6271 27.0081 17.9327 27.1079 17.2851C27.3673 15.6023 27.5779 14.2362 27.6127 13.7493C27.7573 12.1117 26.0233 12.786 26.0233 12.786C26.0233 12.786 22.2665 14.3273 21.1586 14.8089Z"/>  
    </symbol>
    <symbol id="youtube" viewBox="0 0 24 24" fill="currentColor">
        <path transform="scale(0.6)" fill-rule="evenodd" clip-rule="evenodd" d="M33.0217 9.03708C34.4561 9.42287 35.5855 10.5597 35.9689 12.0031L35.9688 12.0033C36.6654 14.6196 36.6654 20.0786 36.6654 20.0786C36.6654 20.0786 36.6654 25.5373 35.9688 28.1539C35.5854 29.5974 34.456 30.734 33.0216 31.1201C30.4223 31.8209 19.9986 31.8209 19.9986 31.8209C19.9986 31.8209 9.57495 31.8209 6.97551 31.1201C5.54127 30.7339 4.41158 29.5974 4.02848 28.1538C3.33203 25.5371 3.33203 20.0784 3.33203 20.0784C3.33203 20.0784 3.33203 14.6195 4.02848 12.0031C4.41158 10.5597 5.54127 9.42287 6.97565 9.03708C9.57509 8.33594 19.9987 8.33594 19.9987 8.33594C19.9987 8.33594 30.4224 8.33594 33.0217 9.03708ZM25.3019 20.0737L16.5898 25.0297V15.1172L25.3019 20.0737Z"/>
    </symbol>
    <symbol id="facebook" viewBox="0 0 24 24" fill="currentColor">
        <path transform="scale(0.6)" fill-rule="evenodd" clip-rule="evenodd" d="M20.0007 36.6693C29.2054 36.6693 36.6673 29.2073 36.6673 20.0026C36.6673 10.7979 29.2054 3.33594 20.0007 3.33594C10.7959 3.33594 3.33398 10.7979 3.33398 20.0026C3.33398 29.2073 10.7959 36.6693 20.0007 36.6693ZM16.9495 24.7852V36.3888C17.9388 36.5718 18.9588 36.6675 20.0011 36.6675C20.9297 36.6675 21.8406 36.5916 22.7279 36.4455V24.7852H27.0585L27.5411 20.0644H22.726V17.1423C22.726 15.3808 23.248 14.5822 25.0531 14.5822L27.6122 14.5879V10.145C26.495 10.0094 25.3705 9.94268 24.245 9.94539C18.8744 9.94539 16.9495 12.4607 16.9495 17.2225V20.0644H13.0566V24.7852H16.9495Z"/>
    </symbol>
    <symbol id="instagram" viewBox="0 0 24 24" fill="currentColor">
        <path transform="scale(0.6)" fill-rule="evenodd" clip-rule="evenodd" d="M5.3331 5.3331C3.00001 7.6862 3.00001 11.4558 3.00001 18.9984V20.3316L3 20.5209C2.99984 27.9474 2.99975 31.6834 5.3331 33.9969C7.6862 36.33 11.4558 36.33 18.9984 36.33H20.3316H20.5201C27.9472 36.3302 31.6833 36.3303 33.9969 33.9969C36.33 31.6439 36.33 27.8742 36.33 20.3316V18.9984V18.8099C36.3302 11.3828 36.3303 7.6467 33.9969 5.3331C31.6439 3.00001 27.8742 3.00001 20.3316 3.00001H18.9984L18.8091 3C11.3825 2.99984 7.64662 2.99975 5.3331 5.3331ZM11.2676 7.36716C10.3896 7.70862 9.64705 8.1639 8.9045 8.90645C8.16195 9.64358 7.70667 10.3915 7.3652 11.2642C7.03458 12.1097 6.81236 13.0799 6.74732 14.4999C6.68228 15.92 6.66602 16.3753 6.66602 19.9959C6.66602 23.6165 6.68228 24.0718 6.74732 25.4918C6.81236 26.9119 7.04 27.8821 7.3652 28.7276C7.70667 29.6056 8.16195 30.3482 8.9045 31.0907C9.64705 31.8333 10.3896 32.2886 11.2676 32.63C12.1132 32.9607 13.0834 33.1829 14.5034 33.2479C15.9235 33.313 16.3788 33.3292 19.9993 33.3292C23.6199 33.3292 24.0752 33.313 25.4953 33.2479C26.9153 33.1829 27.8855 32.9552 28.7311 32.63C29.6091 32.2886 30.3516 31.8333 31.0942 31.0907C31.8367 30.3482 32.292 29.6056 32.6335 28.7276C32.9641 27.8821 33.1863 26.9119 33.2514 25.4918C33.3164 24.0718 33.3327 23.6165 33.3327 19.9959C33.3327 16.3753 33.3164 15.92 33.2514 14.4999C33.1863 13.0799 32.9587 12.1097 32.6335 11.2642C32.292 10.3915 31.8367 9.64358 31.0996 8.90645C30.3571 8.1639 29.6145 7.70862 28.7365 7.36716C27.8909 7.03653 26.9208 6.81431 25.5007 6.74927C24.0806 6.68423 23.6254 6.66797 20.0048 6.66797C16.3842 6.66797 15.9289 6.68423 14.5088 6.74927C13.0834 6.80889 12.1132 7.03653 11.2676 7.36716ZM25.3869 9.14493C26.6877 9.20455 27.3923 9.42136 27.8638 9.60564C28.4872 9.84954 28.9316 10.1368 29.3977 10.6029C29.8638 11.0691 30.1511 11.5135 30.395 12.1368C30.5793 12.6083 30.7961 13.313 30.8557 14.6138C30.9208 16.0176 30.9316 16.4403 30.9316 20.0013C30.9316 23.5623 30.9153 23.985 30.8557 25.3888C30.7961 26.6897 30.5793 27.3943 30.395 27.8658C30.1511 28.4891 29.8638 28.9336 29.3977 29.3997C28.9316 29.8658 28.4872 30.1531 27.8638 30.397C27.3923 30.5812 26.6877 30.7981 25.3869 30.8577C23.9831 30.9227 23.5603 30.9336 19.9993 30.9336C16.4384 30.9336 16.0156 30.9173 14.6118 30.8577C13.311 30.7981 12.6064 30.5812 12.1348 30.397C11.5115 30.1531 11.0671 29.8658 10.601 29.3997C10.1349 28.9336 9.84759 28.4891 9.60368 27.8658C9.4194 27.3943 9.2026 26.6897 9.14298 25.3888C9.07794 23.985 9.0671 23.5623 9.0671 20.0013C9.0671 16.4403 9.08336 16.0176 9.14298 14.6138C9.2026 13.313 9.4194 12.6083 9.60368 12.1368C9.84759 11.5135 10.1349 11.0691 10.601 10.6029C11.0671 10.1368 11.5115 9.84954 12.1348 9.60564C12.6064 9.42136 13.311 9.20455 14.6118 9.14493C16.0156 9.07989 16.4384 9.06905 19.9993 9.06905C23.5603 9.06905 23.9831 9.07989 25.3869 9.14493ZM13.1543 19.9979C13.1543 23.7811 16.222 26.8434 19.9998 26.8434C23.7776 26.8434 26.8454 23.7756 26.8454 19.9979C26.8454 16.2201 23.783 13.1523 19.9998 13.1523C16.2166 13.1523 13.1543 16.2147 13.1543 19.9979ZM24.4443 19.9979C24.4443 22.4532 22.4551 24.4423 19.9998 24.4423C17.5445 24.4423 15.5554 22.4532 15.5554 19.9979C15.5554 17.5426 17.5445 15.5534 19.9998 15.5534C22.4551 15.5534 24.4443 17.5426 24.4443 19.9979ZM28.7213 12.8821C28.7213 13.7652 28.0054 14.481 27.1224 14.481C26.2393 14.481 25.5234 13.7652 25.5234 12.8821C25.5234 11.9991 26.2393 11.2832 27.1224 11.2832C28.0054 11.2832 28.7213 11.9991 28.7213 12.8821Z"/>
    </symbol>
    <symbol id="linkedin" viewBox="0 0 24 24" fill="currentColor">
        <path transform="scale(0.6)" fill-rule="evenodd" clip-rule="evenodd" d="M36.33 19.665C36.33 28.8688 28.8688 36.33 19.665 36.33C10.4612 36.33 3 28.8688 3 19.665C3 10.4612 10.4612 3 19.665 3C28.8688 3 36.33 10.4612 36.33 19.665ZM29.6221 27.8769V21.0063C29.6221 17.3271 27.6573 15.6148 25.0365 15.6148C22.9199 15.6148 21.9758 16.7793 21.4465 17.5939V15.8961H17.4625C17.5159 17.0199 17.4625 27.8766 17.4625 27.8766H21.4462V21.1854C21.4462 20.8263 21.4732 20.4707 21.5781 20.2146C21.8668 19.4981 22.5207 18.7581 23.6213 18.7581C25.0636 18.7581 25.6387 19.8572 25.6387 21.4668V27.8769H29.6221ZM21.4465 17.5939V17.6331H21.42C21.4238 17.6263 21.4288 17.6194 21.4338 17.6125C21.4382 17.6063 21.4427 17.6001 21.4465 17.5939ZM11.041 12.1908C11.041 11.0156 11.9325 10.1211 13.2952 10.1211C14.6581 10.1211 15.4956 11.0156 15.522 12.1908C15.522 13.341 14.6581 14.2613 13.2687 14.2613H13.2429C11.9067 14.2613 11.041 13.341 11.041 12.1908ZM15.26 27.8769H11.2778V15.8961H15.26V27.8769Z"/>
    </symbol>
    <symbol id="okru" viewBox="0 0 24 24" fill="currentColor">
        <path transform="scale(0.6)" fill-rule="evenodd" clip-rule="evenodd" d="M5.3331 5.3331C3.00001 7.6862 3.00001 11.4558 3.00001 18.9984V20.3316L3 20.5209C2.99984 27.9474 2.99975 31.6834 5.3331 33.9969C7.6862 36.33 11.4558 36.33 18.9984 36.33H20.3316H20.5201C27.9472 36.3302 31.6833 36.3303 33.9969 33.9969C36.33 31.6439 36.33 27.8742 36.33 20.3316V18.9984V18.8099C36.3302 11.3828 36.3303 7.6467 33.9969 5.3331C31.6439 3.00001 27.8742 3.00001 20.3316 3.00001H18.9984L18.8091 3C11.3825 2.99984 7.64662 2.99975 5.3331 5.3331ZM24.7446 14.9451C24.7446 17.7252 22.4781 19.9917 19.6979 19.9917C16.8876 19.9917 14.6211 17.7252 14.6211 14.9451C14.6211 12.1649 16.8876 9.89844 19.6979 9.89844C22.4781 9.89844 24.7446 12.1649 24.7446 14.9451ZM21.7831 14.9451C21.7831 13.7967 20.8463 12.8599 19.6979 12.8599C18.5194 12.8599 17.5826 13.7967 17.6128 14.9451C17.6128 16.0934 18.5496 17.0302 19.6979 17.0302C20.8463 17.0302 21.7831 16.0934 21.7831 14.9451ZM24.6538 22.9235C23.7472 23.4977 22.7499 23.8905 21.7225 24.1323L24.5933 26.9126C25.1674 27.4867 25.1674 28.4235 24.5933 28.9977C24.0191 29.5718 23.0823 29.5718 22.5082 28.9977L19.728 26.2175L16.9478 28.9977C16.6456 29.2696 16.283 29.4207 15.8901 29.4207C15.4973 29.4207 15.1346 29.2997 14.8324 28.9977C14.2583 28.4235 14.2583 27.4867 14.8324 26.9126L17.6428 24.1022C16.6154 23.8603 15.6182 23.4675 14.7116 22.8933C14.0165 22.4702 13.805 21.5637 14.1978 20.8686C14.6511 20.1736 15.5577 19.9922 16.2527 20.4153C18.3077 21.7148 20.9972 21.7148 23.0521 20.4153C23.7472 19.962 24.684 20.1736 25.107 20.8686C25.5602 21.5637 25.3487 22.5004 24.6538 22.9235Z"/>
    </symbol>
     <symbol id="vkru" viewBox="0 0 24 24" fill="currentColor">
        <path transform="scale(0.6)" fill-rule="evenodd" clip-rule="evenodd" d="M5.67713 5.67908C3.33398 8.02223 3.33398 11.7934 3.33398 19.3359V20.6693C3.33398 28.2118 3.33398 31.983 5.67713 34.3261C8.02028 36.6693 11.7915 36.6693 19.334 36.6693H20.6673C28.2098 36.6693 31.981 36.6693 34.3242 34.3261C36.6673 31.983 36.6673 28.2118 36.6673 20.6693V19.3359C36.6673 11.7934 36.6673 8.02223 34.3242 5.67908C31.981 3.33594 28.2098 3.33594 20.6673 3.33594H19.334C11.7915 3.33594 8.02028 3.33594 5.67713 5.67908ZM8.95898 13.4766C9.13954 22.1432 13.4728 27.3516 21.07 27.3516H21.5007V22.3932C24.2924 22.671 26.4033 24.7127 27.2505 27.3516H31.1951C30.1118 23.4071 27.2644 21.2266 25.4866 20.3932C27.2644 19.3654 29.7644 16.8655 30.3616 13.4766H26.7782C26.0004 16.2266 23.6952 18.7266 21.5007 18.9627V13.4766H17.9172V23.0877C15.695 22.5321 12.8895 19.8377 12.7645 13.4766H8.95898Z"/>
    </symbol>
</svg>
