<svg width="40" height="40" viewBox="0 0 40 40" fill="none" xmlns="http://www.w3.org/2000/svg">
  <g id="btn/email">
    <circle id="Box" cx="20" cy="20" r="19.5" stroke="#A0ABB5" />
    <path id="Vector"
      d="M12 28C11.45 28 10.979 27.804 10.587 27.412C10.195 27.02 9.99934 26.5493 10 26V14C10 13.45 10.196 12.979 10.588 12.587C10.98 12.195 11.4507 11.9993 12 12H28C28.55 12 29.021 12.196 29.413 12.588C29.805 12.98 30.0007 13.4507 30 14V26C30 26.55 29.804 27.021 29.412 27.413C29.02 27.805 28.5493 28.0007 28 28H12ZM20 20.825C20.0833 20.825 20.171 20.8123 20.263 20.787C20.355 20.7617 20.4423 20.7243 20.525 20.675L27.6 16.25C27.7333 16.1667 27.8333 16.0623 27.9 15.937C27.9667 15.8117 28 15.6743 28 15.525C28 15.1917 27.8583 14.9417 27.575 14.775C27.2917 14.6083 27 14.6167 26.7 14.8L20 19L13.3 14.8C13 14.6167 12.7083 14.6127 12.425 14.788C12.1417 14.9633 12 15.209 12 15.525C12 15.6917 12.0333 15.8377 12.1 15.963C12.1667 16.0883 12.2667 16.184 12.4 16.25L19.475 20.675C19.5583 20.725 19.646 20.7627 19.738 20.788C19.83 20.8133 19.9173 20.8257 20 20.825Z"
      fill="#374146" />
  </g>
</svg>