<svg width="32" height="32" viewBox="0 0 32 32" fill="none" xmlns="http://www.w3.org/2000/svg">
<path fill-rule="evenodd" clip-rule="evenodd" d="M16.0001 30.4001C23.953 30.4001 30.4001 23.953 30.4001 16.0001C30.4001 8.0472 23.953 1.6001 16.0001 1.6001C8.0472 1.6001 1.6001 8.0472 1.6001 16.0001C1.6001 23.953 8.0472 30.4001 16.0001 30.4001ZM10.0512 15.239C10.6662 14.6045 11.6792 14.5887 12.3137 15.2037L14.6114 17.4309L20.1794 11.6865C20.7944 11.052 21.8073 11.0362 22.4419 11.6512C23.0764 12.2662 23.0922 13.2792 22.4771 13.9137L15.7956 20.8069C15.1806 21.4415 14.1676 21.4573 13.5331 20.8422L10.0865 17.5015C9.452 16.8864 9.4362 15.8735 10.0512 15.239Z" fill="white"/>
</svg>
