<svg width="12" height="12" viewBox="0 0 12 12" fill="none" xmlns="http://www.w3.org/2000/svg">
<path fill-rule="evenodd" clip-rule="evenodd" d="M11.5994 6.00234C11.5994 9.09514 9.09221 11.6023 5.99941 11.6023C2.90661 11.6023 0.399414 9.09514 0.399414 6.00234C0.399414 2.90954 2.90661 0.402344 5.99941 0.402344C9.09221 0.402344 11.5994 2.90954 11.5994 6.00234ZM5.99941 3.30234C5.28143 3.30234 4.69941 3.88438 4.69941 4.60234V4.70398C4.69941 4.98012 4.47555 5.20398 4.19941 5.20398C3.92327 5.20398 3.69941 4.98012 3.69941 4.70398V4.60234C3.69941 3.33208 4.72915 2.30234 5.99941 2.30234H6.15399C7.33887 2.30234 8.29941 3.26288 8.29941 4.44776C8.29941 5.20468 7.90055 5.90558 7.24981 6.2922L6.90197 6.49884C6.65239 6.64714 6.49941 6.91596 6.49941 7.20628V7.28234C6.49941 7.55848 6.27555 7.78234 5.99941 7.78234C5.72327 7.78234 5.49941 7.55848 5.49941 7.28234V7.20628C5.49941 6.56316 5.83831 5.96762 6.39121 5.63912L6.73903 5.43248C7.08647 5.22608 7.29941 4.85186 7.29941 4.44776C7.29941 3.81516 6.78659 3.30234 6.15399 3.30234H5.99941ZM6.49941 8.72232C6.49941 8.44618 6.27555 8.22232 5.99941 8.22232C5.72327 8.22232 5.49941 8.44618 5.49941 8.72232V9.04233C5.49941 9.31847 5.72327 9.54233 5.99941 9.54233C6.27555 9.54233 6.49941 9.31847 6.49941 9.04233V8.72232Z" fill="#58646A"/>
</svg>
