<svg width="12" height="12" viewBox="0 0 12 12" fill="none" xmlns="http://www.w3.org/2000/svg">
<path fill-rule="evenodd" clip-rule="evenodd" d="M11.5984 6.00039C11.5984 9.09319 9.09124 11.6004 5.99844 11.6004C2.90564 11.6004 0.398438 9.09319 0.398438 6.00039C0.398438 2.90759 2.90564 0.400391 5.99844 0.400391C9.09124 0.400391 11.5984 2.90759 11.5984 6.00039ZM5.99844 3.30039C5.28046 3.30039 4.69844 3.88243 4.69844 4.60039V4.70203C4.69844 4.97817 4.47458 5.20203 4.19844 5.20203C3.9223 5.20203 3.69844 4.97817 3.69844 4.70203V4.60039C3.69844 3.33013 4.72818 2.30039 5.99844 2.30039H6.15302C7.3379 2.30039 8.29844 3.26093 8.29844 4.44581C8.29844 5.20273 7.89958 5.90363 7.24884 6.29025L6.901 6.49689C6.65142 6.64519 6.49844 6.91401 6.49844 7.20433V7.28039C6.49844 7.55653 6.27458 7.78039 5.99844 7.78039C5.7223 7.78039 5.49844 7.55653 5.49844 7.28039V7.20433C5.49844 6.56121 5.83734 5.96567 6.39024 5.63717L6.73806 5.43053C7.0855 5.22413 7.29844 4.84991 7.29844 4.44581C7.29844 3.81321 6.78562 3.30039 6.15302 3.30039H5.99844ZM6.49844 8.72037C6.49844 8.44423 6.27458 8.22037 5.99844 8.22037C5.7223 8.22037 5.49844 8.44423 5.49844 8.72037V9.04037C5.49844 9.31651 5.7223 9.54037 5.99844 9.54037C6.27458 9.54037 6.49844 9.31651 6.49844 9.04037V8.72037Z" fill="white"/>
</svg>
