<svg width="73" height="73" viewBox="0 0 73 73" fill="none" xmlns="http://www.w3.org/2000/svg">
<path fill-rule="evenodd" clip-rule="evenodd" d="M5.14516 9.23306H6.59016C8.19016 9.23306 8.99216 8.52306 8.99216 7.10206C8.99216 5.68106 8.19016 4.97206 6.59016 4.97206H5.14516V9.23306ZM5.14516 18.4841H0.785156V1.39006H7.72416C9.60716 1.39006 11.0492 1.88806 12.0492 2.88406C13.0492 3.88206 13.5502 5.29006 13.5502 7.10206C13.5502 8.91506 13.0502 10.3221 12.0492 11.3191C11.0492 12.3171 9.60716 12.8151 7.72416 12.8151H5.14516V18.4851V18.4841ZM32.2762 9.02906H33.0992C33.9592 9.02906 34.6192 8.84806 35.0782 8.48506C35.5382 8.12306 35.7672 7.60006 35.7672 6.92206C35.7672 6.24106 35.5372 5.71906 35.0782 5.35706C34.6182 4.99406 33.9582 4.81206 33.0982 4.81206H32.2762V9.03006V9.02906ZM41.8602 18.4841H36.4332L32.2762 11.9091V18.4841H27.9182V1.38906H34.6992C35.6352 1.38906 36.4492 1.52906 37.1462 1.80806C37.8422 2.08806 38.4162 2.47006 38.8692 2.95406C39.321 3.43702 39.6692 4.0074 39.8922 4.63006C40.1222 5.26606 40.2362 5.94606 40.2362 6.67206C40.2362 7.97206 39.9292 9.02506 39.3152 9.83406C38.6982 10.6441 37.7912 11.1911 36.5892 11.4791L41.8602 18.4841ZM58.0172 9.93606C58.0172 10.6161 58.1422 11.2441 58.3962 11.8181C58.6372 12.378 58.9838 12.8863 59.4172 13.3151C59.8472 13.7381 60.3482 14.0671 60.9192 14.3011C61.4892 14.5351 62.0942 14.6511 62.7312 14.6511C63.9713 14.6571 65.1646 14.1772 66.0552 13.3141C66.4944 12.8877 66.846 12.3794 67.0902 11.8181C67.3402 11.2441 67.4682 10.6161 67.4682 9.93606C67.4741 9.2893 67.3454 8.64837 67.0902 8.05406C66.5986 6.92537 65.6842 6.03431 64.5432 5.57206C63.968 5.3375 63.3523 5.21857 62.7312 5.22206C62.0942 5.22206 61.4902 5.33806 60.9192 5.57206C60.3588 5.79932 59.8485 6.13431 59.4172 6.55806C58.9872 6.98106 58.6472 7.48106 58.3962 8.05406C58.1393 8.64788 58.0101 9.28909 58.0172 9.93606ZM53.4592 9.93606C53.4592 8.66606 53.6892 7.48406 54.1482 6.38806C54.5918 5.31625 55.2414 4.34186 56.0602 3.52006C56.8956 2.69066 57.8902 2.03891 58.9842 1.60406C60.1192 1.14406 61.3672 0.914062 62.7312 0.914062C64.0802 0.914062 65.3252 1.14406 66.4672 1.60406C67.5677 2.0387 68.5696 2.69029 69.4132 3.52006C70.2378 4.33943 70.8918 5.31424 71.3372 6.38806C71.7972 7.48406 72.0262 8.66606 72.0262 9.93606C72.0262 11.2061 71.7962 12.3901 71.3362 13.4861C70.891 14.5592 70.2374 15.5333 69.4132 16.3521C68.5704 17.1828 67.5683 17.8345 66.4672 18.2681C65.3252 18.7281 64.0802 18.9581 62.7312 18.9581C61.3672 18.9581 60.1192 18.7281 58.9842 18.2681C57.8896 17.8343 56.8948 17.1824 56.0602 16.3521C55.2414 15.5307 54.5918 14.5566 54.1482 13.4851C53.6882 12.3901 53.4582 11.2061 53.4582 9.93506" fill="#374146"/>
<path fill-rule="evenodd" clip-rule="evenodd" d="M37.0668 66.4964V72.8974H32.7088V66.4964H27.3828V62.1094H42.3928V66.4964H37.0668Z" fill="#EA5A0A"/>
<path fill-rule="evenodd" clip-rule="evenodd" d="M32.7103 60.2471H37.0683V55.8041H32.7103V60.2471ZM13.5833 34.3101C12.5753 33.0551 11.3303 32.4281 9.84731 32.4281C9.24316 32.4222 8.64406 32.5386 8.08606 32.7703C7.52805 33.0019 7.02267 33.3441 6.60031 33.7761C6.20031 34.1921 5.88631 34.6891 5.65731 35.2621C5.42396 35.8535 5.3065 36.4843 5.31131 37.1201C5.31131 37.8011 5.42731 38.4281 5.65731 39.0031C5.88731 39.5781 6.20531 40.0761 6.61331 40.4991C7.02131 40.9221 7.49831 41.2571 8.04631 41.4971C8.60736 41.7413 9.21344 41.865 9.82531 41.8601C11.2183 41.8601 12.4713 41.2571 13.5833 40.0461V45.3061L13.1393 45.4641C12.531 45.6885 11.9066 45.8663 11.2713 45.9961C10.7072 46.1081 10.1335 46.165 9.55831 46.1661C8.41667 46.1692 7.28613 45.942 6.23431 45.4981C5.18615 45.0606 4.23412 44.4215 3.43231 43.6171C2.61001 42.7868 1.95033 41.81 1.48731 40.7371C0.998313 39.6271 0.753313 38.4141 0.753313 37.0991C0.753313 35.7831 0.993312 34.5791 1.47531 33.4831C1.93236 32.4229 2.58933 31.4608 3.41031 30.6491C5.05763 29.0313 7.27346 28.1237 9.58231 28.1211C10.2483 28.1211 10.9043 28.1921 11.5493 28.3361C12.1933 28.4801 12.8723 28.7031 13.5833 29.0061V34.3101ZM31.7423 35.1941H38.0353V28.5971H42.3933V45.6901H38.0353V38.6411H31.7433V45.6911H27.3853V28.5961H31.7433L31.7423 35.1941ZM64.6993 39.3431L62.7423 33.6511L60.7853 39.3431H64.6993ZM65.8563 42.7211H59.6283L58.6293 45.6911H53.9823L60.3633 28.5961H65.1233L71.5033 45.6911H66.8563L65.8563 42.7211ZM4.55631 63.4441H5.37831C6.23731 63.4441 6.89831 63.2621 7.35831 62.8991C7.81731 62.5351 8.04631 62.0151 8.04631 61.3351C8.04631 60.6551 7.81631 60.1331 7.35831 59.7711C6.89831 59.4081 6.23731 59.2261 5.37831 59.2261H4.55631V63.4441ZM14.1393 72.8981H8.71231L4.55531 66.3231V72.8981H0.195312V55.8031H6.97831C7.91231 55.8031 8.72831 55.9431 9.42531 56.2221C10.1213 56.5021 10.6953 56.8841 11.1463 57.3671C11.5988 57.8507 11.9476 58.4217 12.1713 59.0451C12.4035 59.7003 12.5199 60.391 12.5153 61.0861C12.5153 62.3861 12.2073 63.4391 11.5923 64.2481C10.9773 65.0581 10.0693 65.6051 8.86831 65.8931L14.1383 72.8981H14.1393ZM60.5523 64.6901L54.4363 55.8031H59.6403L62.7543 60.4731L65.8443 55.8031H71.0483L64.9103 64.6911V72.8981H60.5523V64.6901Z" fill="#7DCDD7"/>
</svg>
