<svg width="953" height="633" viewBox="0 0 953 633" fill="none" xmlns="http://www.w3.org/2000/svg">
<path d="M494.741 43.7295H501.247L503.155 25.4093H496.649L494.741 43.7295ZM500.458 51.5068H493.945L491.843 71.5031H482.826L484.932 51.5068H480L480.821 43.7295H485.72L487.645 25.4093H482.608L483.428 17.6187H488.442L490.14 1.50106H499.141L497.439 17.6187H503.96L505.67 1.50106H514.659L512.988 17.6187H518.082L517.294 25.4093H512.175L510.268 43.7295H515.393L514.578 51.5068H509.455L507.369 71.5031H498.359L500.458 51.5068Z" fill="white" fill-opacity="0.16"/>
<path d="M554.059 19.6118V54.0009H558.152C561.677 54.0009 563.662 52.0178 563.662 47.0129V26.4923C563.662 21.514 561.677 19.6118 558.152 19.6118H554.059ZM543.232 19.6118H539.124C535.63 19.6118 533.613 21.514 533.613 26.4923V47.0129C533.613 52.0178 535.63 54.0009 539.124 54.0009H543.232V19.6118ZM543.232 63.6272H539.124C528.106 63.6272 522.697 57.5193 522.697 46.3023V27.2017C522.697 15.9881 528.106 9.89243 539.124 9.89243H543.232V1.50106H554.059V9.89243H558.152C569.198 9.89243 574.599 15.9881 574.599 27.2017V46.3023C574.599 57.5193 569.198 63.6272 558.152 63.6272H554.059V71.5031H543.232V63.6272Z" fill="white" fill-opacity="0.16"/>
<path d="M592.108 55.4021C592.108 60.4059 594.335 62.3159 597.833 62.3159C601.346 62.3159 603.553 60.4059 603.553 55.4021V17.6188C603.553 12.6172 601.346 10.7084 597.833 10.7084C594.335 10.7084 592.108 12.6172 592.108 17.6188V55.4021ZM581.105 18.3005C581.105 7.09908 587.028 0.697475 597.833 0.697475C608.667 0.697475 614.566 7.09908 614.566 18.3005V54.7182C614.566 65.913 608.667 72.3301 597.833 72.3301C587.028 72.3301 581.105 65.913 581.105 54.7182V18.3005Z" fill="white" fill-opacity="0.16"/>
<path d="M632.705 71.5031H621.676V1.50106H632.705V31.5238H645.235V1.50106H656.455V71.5031H645.235V41.5192H632.705V71.5031Z" fill="white" fill-opacity="0.16"/>
<path d="M679.902 52.4168C679.603 57.7111 678.587 60.0068 676.785 61.7272H691.207V11.4998H681.907L679.902 52.4168ZM696.329 80.9209V71.5031H672.782V80.9209H662.059V61.7272H666.389C668.262 59.3206 668.884 56.709 669.094 52.6119L671.596 1.50106H702.428V61.7272H707.25V80.9209H696.329Z" fill="white" fill-opacity="0.16"/>
<path d="M728.78 52.4168C728.482 57.7111 727.486 60.0068 725.683 61.7272H740.097V11.4998H730.778L728.78 52.4168ZM745.224 80.9209V71.5031H721.677V80.9209H710.965V61.7272H715.28C717.169 59.3206 717.775 56.709 717.969 52.6119L720.472 1.50106H751.345V61.7272H756.137V80.9209H745.224Z" fill="white" fill-opacity="0.16"/>
<path d="M773.28 11.4998V35.214H778.492C781.985 35.214 783.891 33.6 783.891 28.6062V18.0876C783.891 13.1093 781.985 11.4998 778.492 11.4998H773.28ZM794.918 18.7893V27.9034C794.918 39.1059 789.521 45.1938 778.492 45.1938H773.28V71.4998H762.261V1.50106H778.492C789.521 1.50106 794.918 7.61557 794.918 18.7893Z" fill="white" fill-opacity="0.16"/>
<path d="M824.48 53.706C821.876 66.3086 817.541 72.626 802.222 71.6317V61.8026C807.841 62.2149 811.044 61.2184 811.953 56.1159L812.051 55.5107L796.805 1.50106H807.752L813.756 25.4093L817.158 41.814L819.764 25.5257L824.779 1.50106H836.306L824.48 53.706Z" fill="white" fill-opacity="0.16"/>
<path d="M862.142 18.7007C862.142 12.4077 859.924 10.7084 856.445 10.7084C852.924 10.7084 850.624 12.6172 850.624 17.6188V23.3021H840.491V18.0877C840.491 6.89401 845.914 0.697475 856.747 0.697475C867.559 0.697475 873.149 7.09908 873.149 18.3005V20.1096C873.149 27.6131 870.774 32.312 865.454 34.508C870.965 36.8946 873.149 42.109 873.149 49.2167V54.7182C873.149 65.913 867.559 72.3301 856.747 72.3301C845.914 72.3301 840.301 65.913 840.301 54.7182V47.013H850.716V55.4021C850.716 60.4059 852.924 62.3159 856.445 62.3159C859.924 62.3159 862.142 60.6232 862.142 54.4078V48.9263C862.142 42.4083 859.924 40.0172 854.928 40.0172H852.229V30.0152H855.536C859.628 30.0152 862.142 28.2028 862.142 22.6281V18.7007Z" fill="white" fill-opacity="0.16"/>
<path d="M896.805 61.5167C900.326 61.5167 902.224 59.9182 902.224 54.9044V44.4169C902.224 39.4131 900.326 37.8024 896.805 37.8024H891.601V61.5167H896.805ZM880.58 71.5032V1.50448H891.601V27.8037H896.805C907.84 27.8037 913.238 33.906 913.238 45.103V54.226C913.238 65.4164 907.84 71.5032 896.805 71.5032H880.58Z" fill="white" fill-opacity="0.16"/>
<path d="M935.788 11.4998C931.877 11.4998 930.196 13.6835 930.196 18.7006V25.6077C930.196 31.2012 932.678 33.0025 936.793 33.0025H941.08V11.4998H935.788ZM917.851 71.4998C918.95 68.9147 919.043 66.4295 919.043 63.0142V52.2273C919.043 44.9112 920.851 39.6181 926.354 37.3213C921.445 35.02 919.168 30.3011 919.168 23.0925V17.6187C919.168 6.80414 924.061 1.50106 935.464 1.50106H952.109V71.4998H941.08V43.0012H937.278C932.266 43.0012 930.089 45.4111 930.089 51.9058V62.9055C930.089 68.6354 929.685 69.7073 929.083 71.4998H917.851Z" fill="white" fill-opacity="0.16"/>
<path fill-rule="evenodd" clip-rule="evenodd" d="M101.95 289.226L20.832 339.915L-29.8561 258.796L51.2619 208.108L101.95 289.226ZM246.281 520.185L173.252 403.314L272.377 341.374L222.336 261.291L-57.06 435.877L-7.0186 515.96L92.1337 454.002L165.163 570.873L246.281 520.185Z" fill="white" fill-opacity="0.32"/>
<path fill-rule="evenodd" clip-rule="evenodd" d="M488.319 428.874L474.212 420.059L483.027 405.952L497.135 414.767L488.319 428.874ZM463.221 469.043L475.922 448.718L493.161 459.49L501.864 445.562L453.274 415.2L444.571 429.127L461.815 439.902L449.114 460.228L463.221 469.043Z" fill="white" fill-opacity="0.4"/>
<path fill-rule="evenodd" clip-rule="evenodd" d="M530.833 158.567L516.841 162.579L512.829 148.587L526.821 144.575L530.833 158.567ZM542.258 198.405L536.477 178.246L553.575 173.343L549.615 159.53L501.422 173.349L505.383 187.162L522.485 182.258L528.266 202.417L542.258 198.405Z" fill="white" fill-opacity="0.24"/>
<path opacity="0.162272" fill-rule="evenodd" clip-rule="evenodd" d="M279.628 79.0979L273.631 80.8174L271.912 74.8209L277.908 73.1014L279.628 79.0979ZM284.524 96.1715L282.047 87.532L289.375 85.4308L287.677 79.5107L267.023 85.4332L268.721 91.3532L276.05 89.2514L278.528 97.891L284.524 96.1715Z" fill="white"/>
<path fill-rule="evenodd" clip-rule="evenodd" d="M714.192 288.263L703.896 289.71L702.449 279.414L712.745 277.967L714.192 288.263ZM718.313 317.578L716.228 302.744L728.809 300.976L727.381 290.812L691.919 295.795L693.347 305.96L705.932 304.191L708.017 319.025L718.313 317.578Z" fill="white" fill-opacity="0.16"/>
<path fill-rule="evenodd" clip-rule="evenodd" d="M404.472 277.815L407.464 280.704L404.575 283.695L401.583 280.806L404.472 277.815ZM412.697 269.297L408.535 273.607L404.879 270.077L402.027 273.03L412.331 282.98L415.183 280.027L411.527 276.496L415.689 272.186L412.697 269.297Z" fill="white" fill-opacity="0.16"/>
<path fill-rule="evenodd" clip-rule="evenodd" d="M347.173 418.381L344.391 421.471L341.3 418.688L344.083 415.598L347.173 418.381ZM355.973 426.304L351.521 422.294L354.921 418.518L351.87 415.77L342.285 426.415L345.336 429.163L348.738 425.385L353.191 429.394L355.973 426.304Z" fill="white" fill-opacity="0.16"/>
<path fill-rule="evenodd" clip-rule="evenodd" d="M257.984 607.073L255.658 603.625L259.106 601.299L261.432 604.747L257.984 607.073ZM248.167 613.694L253.135 610.344L255.977 614.557L259.38 612.261L251.37 600.386L247.967 602.682L250.809 606.896L245.842 610.247L248.167 613.694Z" fill="white" fill-opacity="0.16"/>
<path fill-rule="evenodd" clip-rule="evenodd" d="M626.974 573.141L623.175 574.833L621.483 571.034L625.282 569.342L626.974 573.141ZM631.791 583.959L629.353 578.485L633.996 576.418L632.326 572.667L619.24 578.493L620.91 582.244L625.554 580.176L627.991 585.65L631.791 583.959Z" fill="white" fill-opacity="0.16"/>
</svg>
