<svg width="144" height="60" fill="none" xmlns="http://www.w3.org/2000/svg"><path opacity=".4" d="M42.406 12.73h-3.423v44.533h3.423V12.731zM45.828 2.426h-3.422V9.27h3.422V2.426zM8.183 12.73H4.76v44.533h3.422V12.731zM4.761 2.426H1.339V9.27H4.76V2.426z" fill="#fff"/><path d="M11.606 12.73h3.422v20.556h-3.422V12.73zM18.45 12.73h3.422v44.533H18.45V12.731zM25.295 12.73h3.422v44.533h-3.422V12.731zM32.14 12.73h3.422v20.556h-3.423V12.73zM21.87 2.426h3.424V9.27H21.87V2.426z" fill="#fff"/><g opacity=".75"><path opacity=".75" d="M4.761 12.73H1.339v20.556H4.76V12.73zM11.605 12.73H8.183v44.533h3.422V12.731zM18.45 12.73h-3.424v44.533h3.424V12.731zM15.029 2.426h-3.423V9.27h3.423V2.426zM21.87 12.73h3.424v20.556H21.87V12.73zM32.14 12.73h-3.423v44.533h3.423V12.731zM38.984 12.73H35.56v44.533h3.424V12.731zM45.828 12.73h-3.422v20.556h3.422V12.73zM35.562 2.426H32.14V9.27h3.422V2.426z" fill="#fff"/></g><path d="M91.403 20.896v3.39h.018c1.287 0 2.093-.576 2.093-1.7 0-1.055-.763-1.69-2.103-1.69h-.008zm-.738 3.39h.008v-3.39c-1.304 0-2.085.635-2.085 1.69 0 1.116.815 1.7 2.077 1.7zm.008.669h-.008c-1.69 0-2.849-.85-2.849-2.368 0-1.51 1.141-2.36 2.858-2.369V19.6h.73v.618c1.733.009 2.883.875 2.883 2.369 0 1.51-1.176 2.368-2.858 2.368h-.026v.79h-.73v-.79zM98.972 25.076c1.373 0 2.291-1.047 2.291-2.402 0-1.4-1.004-2.403-2.291-2.403-1.305 0-2.292 1.003-2.292 2.402 0 1.364 1.004 2.403 2.292 2.403zm0-5.492c1.741 0 3.063 1.261 3.063 3.09 0 1.784-1.322 3.088-3.063 3.088-1.742 0-3.064-1.26-3.064-3.088 0-1.743 1.279-3.09 3.064-3.09zM108.248 22.957h-3.305v2.72h-.729V19.67h.729v2.6h3.305v-2.6h.729v6.007h-.729v-2.72zM112.314 24.99h3.047v-4.633h-2.102l-.077 1.072c-.147 2.068-.645 3.287-.868 3.562zm-1.45 0h.644c.249-.308.858-1.604.987-4.118l.059-1.202h3.537v5.32h.815v1.803h-.687v-1.116h-4.669v1.116h-.686V24.99zM91.557 34.738c-.08 1.08-.238 2.056-.487 2.912-.251.856-.475 1.423-.672 1.674h3.847V33.13h-2.543l-.145 1.608zm-3.927 7.748v-3.162h.989c.276-.33.552-1.016.856-2.042.303-1.042.5-2.307.567-3.822l.092-1.845h5.719v7.71h1.252v3.161h-1.516V40.84h-6.443v1.647H87.63zM101.64 33.13v2.833c.422.04.804.066 1.146.066 1.015 0 1.713-.5 1.713-1.49 0-.961-.566-1.435-1.7-1.435-.197 0-.58.013-1.159.026zm0 7.709h-1.62v-9.224c.157 0 .579 0 1.251-.014.685-.013 1.146-.013 1.371-.013 2.7 0 3.57 1.436 3.57 2.965a2.87 2.87 0 0 1-.895 2.122c-.594.58-1.423.869-2.478.869-.541 0-.935-.013-1.199-.04v3.335zM116.493 31.615l-3.136 7.077c-.646 1.462-1.398 2.147-2.504 2.147-.541 0-.962-.119-1.266-.37l.568-1.37c.223.146.448.225.685.225.408 0 .711-.211.908-.646l.133-.316-4.071-6.747h1.831l3.018 5.152 2.199-5.152h1.635zM118.433 39.43l.883-1.094c.579.671 1.462 1.132 2.2 1.132.962 0 1.701-.474 1.701-1.369 0-.738-.581-1.213-1.635-1.213h-.949v-1.515h.897c.724 0 1.331-.475 1.331-1.213 0-.75-.541-1.172-1.345-1.172-.751 0-1.37.329-1.871 1.001l-.935-1.08c.619-.857 1.765-1.436 2.99-1.436 1.673 0 2.768.935 2.768 2.53 0 .75-.435 1.554-1.239 2.029v.04c1.068.263 1.594 1.08 1.594 2.186 0 .818-.316 1.476-.962 1.977-.632.501-1.383.751-2.265.751-1.49 0-2.597-.698-3.163-1.555zM129.899 36.293v3.017l.896.04c1.278 0 1.924-.54 1.924-1.621 0-1-.725-1.502-1.897-1.502-.198 0-.515.026-.923.066zm0-4.678v3.162a9.42 9.42 0 0 1 1.054-.066c2.319 0 3.479 1.12 3.479 2.979 0 1.963-1.398 3.175-3.821 3.175-.33 0-.765 0-1.306-.013-.539-.013-.882-.013-1.027-.013v-9.224h1.621zM141.787 36.135v-3.004c-.448-.026-.791-.04-1.015-.04-1.054 0-1.753.633-1.753 1.568 0 .791.568 1.33 1.292 1.476h1.476zm0 4.705v-3.19h-1.331l-2.069 3.19h-1.819l2.36-3.519c-.95-.474-1.622-1.357-1.622-2.556 0-.922.316-1.687.95-2.28.632-.606 1.581-.909 2.845-.909.198 0 .593.013 1.16.026.58.014.962.014 1.133.014v9.224h-1.607zM65.098 3.041h2.94v55.146h-2.94V3.041z" fill="#fff"/></svg>