<svg width="78" height="54" viewBox="0 0 78 54" fill="none" xmlns="http://www.w3.org/2000/svg">
<path d="M39.655 54H0C1.399 51.826 2.129 49.237 2.088 46.597V32.562C2.085 24.522 8.17 18.003 15.68 18H39.654C47.166 18.003 53.251 24.524 53.248 32.563V39.437C53.251 47.476 47.166 53.995 39.655 54Z" fill="white"/>
<path d="M12.6133 30H43.4413V31.655H12.6133V30ZM12.6133 35.921H41.7843V37.577H12.6133V35.921ZM12.6133 41.845H38.3293V43.5H12.6133V41.845Z" fill="#374146"/>
<path d="M46.8076 25.5H77.0706C76.0036 23.9619 75.4463 22.1277 75.4776 20.256V10.315C75.4796 4.62 70.8356 0.002 65.1036 0H46.8076C41.0756 0.002 36.4306 4.621 36.4336 10.316V15.184C36.4316 20.879 41.0756 25.496 46.8076 25.5Z" fill="#374146"/>
<path d="M47.6445 9H64.4605V10.875H47.6445V9ZM47.6445 14.625H62.9315V16.5H47.6445V14.625Z" fill="white"/>
</svg>
