<svg width="68" height="54" viewBox="0 0 68 54" fill="none" xmlns="http://www.w3.org/2000/svg">
<rect x="0.25" width="63" height="49.5" rx="2" fill="white"/>
<path d="M18.25 9C18.25 11.4896 16.2396 13.5 13.75 13.5C11.2604 13.5 9.25 11.4896 9.25 9C9.25 6.51038 11.2604 4.5 13.75 4.5C16.2396 4.5 18.25 6.51038 18.25 9ZM4.75 21.0004C4.75 18 10.7496 16.3496 13.75 16.3496C16.7504 16.3496 22.75 18 22.75 21.0004V22.5H4.75V21.0004Z" fill="#374146"/>
<path d="M27.25 11.3906H45.7708V13.5H27.25V11.3906Z" fill="#374146"/>
<path d="M58.75 5.625H27.25V7.73438H58.75V5.625Z" fill="#374146"/>
<path d="M46.1329 27H4.75V29.1094H43.3726C44.21 28.3095 45.1354 27.601 46.1329 27Z" fill="#374146"/>
<path d="M40.2968 33.1875H4.75V35.2969H39.3797C39.6348 34.5678 39.942 33.8632 40.2968 33.1875Z" fill="#374146"/>
<path d="M38.4999 39.5156H4.75V41.625H38.4999V39.5156Z" fill="#374146"/>
<path fill-rule="evenodd" clip-rule="evenodd" d="M54.25 54C61.7058 54 67.75 47.9558 67.75 40.5C67.75 33.0442 61.7058 27 54.25 27C46.7942 27 40.75 33.0442 40.75 40.5C40.75 47.9558 46.7942 54 54.25 54ZM48.6729 39.7865C49.2495 39.1916 50.1991 39.1768 50.794 39.7534L52.9481 41.8414L58.1681 36.456C58.7447 35.8612 59.6943 35.8463 60.2892 36.4229C60.884 36.9995 60.8988 37.9491 60.3222 38.544L54.0583 45.0064C53.4817 45.6013 52.5321 45.6161 51.9372 45.0395L48.706 41.9075C48.1112 41.331 48.0963 40.3813 48.6729 39.7865Z" fill="#374146"/>
</svg>
