<svg width="73" height="64" viewBox="0 0 73 64" fill="none" xmlns="http://www.w3.org/2000/svg">
<path d="M19.8876 23.2852H19.4356C9.14819 23.2852 0.808594 31.6247 0.808594 41.9122C0.808594 52.1996 9.14819 60.5392 19.4356 60.5392H19.8876C30.175 60.5392 38.5146 52.1996 38.5146 41.9122C38.5146 31.6247 30.175 23.2852 19.8876 23.2852Z" fill="#374146"/>
<path d="M43 15H72V35H43V15Z" fill="white"/>
<path d="M42 6H73V14H42V6Z" fill="#374146"/>
<path d="M66.046 1.04402C64.436 -0.426978 61.974 -0.284978 60.506 1.32902L58.186 3.89302L55.866 1.32902C55.5005 0.910008 55.0491 0.574479 54.5426 0.345178C54.036 0.115878 53.4861 -0.00183402 52.93 2.16024e-05C52.4129 -0.000508519 51.9008 0.101114 51.4231 0.299053C50.9454 0.496992 50.5115 0.787348 50.1464 1.15345C49.7812 1.51955 49.492 1.95418 49.2952 2.43238C49.0985 2.91058 48.9982 3.42294 49 3.94002C48.9982 4.45711 49.0985 4.96946 49.2952 5.44766C49.492 5.92586 49.7812 6.3605 50.1464 6.72659C50.5115 7.09269 50.9454 7.38305 51.4231 7.58099C51.9008 7.77893 52.4129 7.88055 52.93 7.88002H63.396C63.947 7.88002 64.492 7.76634 64.997 7.54609C65.502 7.32585 65.9562 7.00378 66.331 6.60002C67.751 5.03302 67.657 2.51702 66.047 1.04502L66.046 1.04402ZM52.931 5.22202C52.221 5.22202 51.701 4.65202 51.701 3.98802C51.701 3.32302 52.268 2.75402 52.931 2.75402C53.263 2.75402 53.594 2.89602 53.831 3.13402L55.725 5.22202H52.931ZM63.396 5.22202H60.602L62.496 3.13302C62.733 2.89602 63.064 2.75302 63.396 2.75302C64.059 2.75302 64.627 3.32302 64.627 3.98802C64.627 4.65202 64.059 5.22202 63.396 5.22202Z" fill="#374146"/>
<path d="M24.5084 34.7266H13.7124L8.31836 40.1036L19.1114 51.6216L29.9054 40.1036L24.5084 34.7266ZM19.5794 45.9896L13.9484 40.3596H25.2114L19.5804 45.9906L19.5794 45.9896Z" fill="white"/>
<path d="M35.3499 59.5542C47.1701 59.5542 57.2318 52.2138 61 41.9533M35.3499 6.44584C30.3079 6.43783 25.3625 7.80246 21.0637 10.3879C16.7648 12.9734 13.2811 16.6784 11 21.0909M32.5567 9.8916L36.0913 6.44532L32.5567 3M37.488 63L33.9534 59.5537L37.488 56.1084" stroke="white" stroke-width="1.5" stroke-linecap="round" stroke-linejoin="round"/>
</svg>
