<svg width="80" height="64" viewBox="0 0 80 64" fill="none" xmlns="http://www.w3.org/2000/svg">
<path fill-rule="evenodd" clip-rule="evenodd" d="M56.4593 7.6H46.3218C45.1022 4.352 41.9081 2 38.1333 2C34.3585 2 31.1644 4.352 29.9449 7.6H19.8074C16.6133 7.6 14 10.12 14 13.2V52.4C14 55.48 16.6133 58 19.8074 58H56.4593C59.6533 58 62.2667 55.48 62.2667 52.4V13.2C62.2667 10.12 59.6533 7.6 56.4593 7.6ZM38.1333 7.6C39.7304 7.6 41.037 8.86 41.037 10.4C41.037 11.94 39.7304 13.2 38.1333 13.2C36.5363 13.2 35.2296 11.94 35.2296 10.4C35.2296 8.86 36.5363 7.6 38.1333 7.6ZM23.6148 46.8H43.9407V41.2H23.6148V46.8ZM52.6519 35.6H23.6148V30H52.6519V35.6ZM23.6148 24.4H52.6519V18.8H23.6148V24.4Z" fill="#374146"/>
<path fill-rule="evenodd" clip-rule="evenodd" d="M66.3279 53.0625V60.2292H61.3537V53.0625H55.2734V48.1523H72.4063V53.0634L66.3279 53.0625Z" fill="white"/>
<path fill-rule="evenodd" clip-rule="evenodd" d="M61.3535 46.0679H66.3277V41.0938H61.3535V46.0679Z" fill="white"/>
</svg>
