<svg width="80" height="64" viewBox="0 0 80 64" fill="none" xmlns="http://www.w3.org/2000/svg">
<path d="M56.3672 13.4906C62.5443 19.5969 62.5442 29.497 56.3671 35.6032L55.668 36.2942C55.668 36.2942 55.9234 35.1647 54.969 34.2212C50.7747 30.075 38.8911 18.3278 38.8911 18.3278C38.119 17.5645 36.8673 17.5643 36.0951 18.3276C34.2096 20.1915 30.8109 23.5513 28.4054 25.929C24.9101 29.384 21.4149 25.9289 23.512 23.8558C32.2189 15.2489 33.9861 13.5022 33.9977 13.4907C40.1749 7.38497 50.1902 7.38454 56.3672 13.4906Z" fill="#374146"/>
<path d="M21.4148 34.2211C22.1869 33.4578 23.4388 33.4578 24.2109 34.2211L24.91 34.9121C25.6821 35.6754 25.6821 36.9129 24.91 37.6762L20.7157 41.8223C19.9436 42.5856 18.6917 42.5856 17.9195 41.8223L17.2205 41.1313C16.4483 40.368 16.4483 39.1305 17.2205 38.3672L21.4148 34.2211Z" fill="#374146"/>
<path d="M26.3081 39.0582C27.0802 38.2949 28.3321 38.2949 29.1042 39.0582L29.8033 39.7492C30.5754 40.5125 30.5754 41.7501 29.8033 42.5133L25.609 46.6595C24.8369 47.4228 23.585 47.4228 22.8128 46.6595L22.1138 45.9684C21.3417 45.2052 21.3417 43.9676 22.1138 43.2044L26.3081 39.0582Z" fill="#374146"/>
<path d="M31.2014 43.8954C31.9735 43.1321 33.2254 43.1321 33.9976 43.8954L34.6966 44.5864C35.4687 45.3497 35.4687 46.5872 34.6966 47.3505L30.5023 51.4966C29.7302 52.2599 28.4783 52.2599 27.7062 51.4966L27.0071 50.8056C26.235 50.0423 26.235 48.8048 27.0071 48.0415L31.2014 43.8954Z" fill="#374146"/>
<path d="M36.0947 48.7325C36.8668 47.9693 38.1187 47.9693 38.8909 48.7325L39.5899 49.4236C40.362 50.1868 40.362 51.4244 39.5899 52.1877L35.3956 56.3338C34.6235 57.0971 33.3716 57.0971 32.5995 56.3338L31.9004 55.6428C31.1283 54.8795 31.1283 53.642 31.9004 52.8787L36.0947 48.7325Z" fill="#374146"/>
<path d="M11.6329 13.4859C17.3365 7.84773 26.3124 7.41556 32.5177 12.1894L22.1165 22.4712C17.9222 26.6174 24.5632 32.4911 29.806 27.3084L36.7964 20.3982C37.1825 20.0165 37.8085 20.0165 38.1945 20.3982L53.5735 35.6007C54.3456 36.3639 54.3457 37.6015 53.5735 38.3647L52.8719 39.0583C52.0997 39.8216 50.8478 39.8216 50.0757 39.0583L38.891 28.002C38.5049 27.6203 37.879 27.6203 37.4929 28.002C37.1068 28.3836 37.1068 29.0024 37.4929 29.384L48.6776 40.4404C49.4497 41.2037 49.4497 42.4412 48.6776 43.2045L47.9785 43.8955C47.2064 44.6588 45.9545 44.6588 45.1824 43.8955L33.9977 32.8391C33.6116 32.4575 32.9856 32.4575 32.5996 32.8391C32.2135 33.2208 32.2135 33.8395 32.5996 34.2212L43.7843 45.2775C44.5564 46.0408 44.5564 47.2784 43.7843 48.0416L41.9833 49.8219C41.8283 49.1621 41.4974 48.5451 40.9881 48.0416L40.2891 47.3506C39.4539 46.5251 38.31 46.1738 37.1725 46.2853C37.2853 45.1608 36.9299 44.03 36.0948 43.2045L35.3958 42.5135C34.5606 41.6879 33.4167 41.3366 32.2792 41.4481C32.392 40.3237 32.0366 39.1929 31.2015 38.3673L30.5024 37.6763C29.6673 36.8507 28.5234 36.4995 27.3859 36.611C27.4987 35.4865 27.1433 34.3557 26.3082 33.5302L25.6091 32.8391C24.0648 31.3126 21.4648 31.4078 19.8017 33.0518L16.0376 36.7727C15.4461 37.3574 15.0528 38.0593 14.861 38.7897L11.6329 35.5987C5.45571 29.4924 5.45571 19.5922 11.6329 13.4859Z" fill="#374146"/>
<path fill-rule="evenodd" clip-rule="evenodd" d="M66.3279 19.9688V27.1355H61.3537V19.9688H55.2734V15.0586H72.4063V19.9697L66.3279 19.9688Z" fill="white"/>
<path fill-rule="evenodd" clip-rule="evenodd" d="M61.3535 12.9742H66.3277V8H61.3535V12.9742Z" fill="white"/>
</svg>
