<svg width="65" height="58" viewBox="0 0 65 58" fill="none" xmlns="http://www.w3.org/2000/svg">
<path fill-rule="evenodd" clip-rule="evenodd" d="M58.3278 21.0625V28.2292H53.3536V21.0625H47.2733V16.1523H64.4062V21.0634L58.3278 21.0625Z" fill="white"/>
<path fill-rule="evenodd" clip-rule="evenodd" d="M53.3534 14.066H58.3276V9.0918H53.3534V14.066Z" fill="white"/>
<path fill-rule="evenodd" clip-rule="evenodd" d="M10.213 17.109C10.213 17.975 10.8969 18.5935 11.6666 18.5935C11.6666 18.5935 13.8903 24.7375 15.4297 27.0054C15.4833 27.0855 15.5381 27.1688 15.5947 27.2549C16.5293 28.6772 17.9507 30.8403 22.8696 30.8403C27.8983 30.8403 29.2717 28.6563 30.2068 27.1692C30.2418 27.1136 30.2761 27.059 30.31 27.0054C31.7636 24.7375 34.0727 18.5935 34.0727 18.5935C34.9281 18.5935 35.5267 17.8925 35.5267 17.109V14.0577C35.5267 13.1505 34.8424 12.532 34.0727 12.532V10.264C34.0727 4.82101 31.165 0.285156 22.8696 0.285156C14.66 0.285156 11.6666 4.82101 11.6666 10.1816V12.532C10.8969 12.532 10.213 13.233 10.213 14.0577V17.109ZM45.6526 50.2104V47.5444C45.6526 46.4196 45.6526 45.2533 45.5687 45.0866C44.7278 36.672 38.843 32.423 30.9409 30.8401C29.5959 32.3397 27.4099 33.9226 22.8702 33.9226C18.3305 33.9226 16.145 32.3397 14.7999 30.8401C6.89743 32.3397 1.01269 36.5887 0.172179 45.0866C0.172179 45.163 0.164311 45.4416 0.153383 45.8285C0.128542 46.7079 0.0878906 48.1472 0.0878906 49.044V50.2104C6.39288 55.2508 13.959 58.0002 22.8702 58.0002C31.6133 58.0002 39.4315 55.1675 45.6526 50.2104Z" fill="#374146"/>
</svg>
