<svg width="80" height="64" viewBox="0 0 80 64" fill="none" xmlns="http://www.w3.org/2000/svg">
<path d="M19 45C19 47.213 17.213 49 15 49C12.787 49 11 47.213 11 45C11 42.787 12.787 41 15 41C17.213 41 19 42.787 19 45ZM7 55.667C7 53 12.333 51.533 15 51.533C17.667 51.533 23 53 23 55.667V57H7V55.667ZM69 5C69 7.213 67.213 9 65 9C62.787 9 61 7.213 61 5C61 2.787 62.787 1 65 1C67.213 1 69 2.787 69 5ZM57 15.667C57 13 62.333 11.533 65 11.533C67.667 11.533 73 13 73 15.667V17H57V15.667ZM38 20.667C40.213 20.667 42 22.453 42 24.667C42 26.88 40.213 28.667 38 28.667C35.787 28.667 34 26.88 34 24.667C34 22.453 35.787 20.667 38 20.667ZM38 39.6C36.4158 39.6 34.8563 39.2081 33.4604 38.459C32.0646 37.7099 30.8757 36.6271 30 35.307C30.04 32.653 35.333 31.2 38 31.2C40.653 31.2 45.96 32.653 46 35.307C45.1243 36.6271 43.9355 37.7099 42.5396 38.459C41.1437 39.2081 39.5842 39.6 38 39.6Z" fill="#374146"/>
<path d="M57.602 43.73H55.036L54.126 42.853C57.4193 39.0332 59.2294 34.1565 59.226 29.113C59.226 17.453 49.774 8 38.113 8C26.453 8 17 17.452 17 29.113C17 40.773 26.452 50.226 38.113 50.226C43.1565 50.2294 48.0332 48.4193 51.853 45.126L52.73 46.036V48.602L67 62.8439L71.8439 58L57.602 43.73ZM38.112 43.73C36.1918 43.7325 34.29 43.3561 32.5155 42.6224C30.741 41.8887 29.1287 40.8121 27.771 39.4543C26.4133 38.0965 25.3368 36.4841 24.6032 34.7096C23.8696 32.935 23.4934 31.0332 23.496 29.113C23.4934 27.1927 23.8696 25.2908 24.6033 23.5162C25.3369 21.7416 26.4135 20.1292 27.7713 18.7713C29.1292 17.4135 30.7416 16.3369 32.5162 15.6033C34.2908 14.8696 36.1927 14.4934 38.113 14.496C40.0333 14.4934 41.9352 14.8696 43.7098 15.6033C45.4844 16.3369 47.0968 17.4135 48.4547 18.7713C49.8125 20.1292 50.8891 21.7416 51.6227 23.5162C52.3563 25.2908 52.7326 27.1927 52.73 29.113C52.7326 31.0333 52.3563 32.9352 51.6227 34.7098C50.8891 36.4844 49.8125 38.0968 48.4547 39.4547C47.0968 40.8125 45.4844 41.8891 43.7098 42.6227C41.9352 43.3563 40.0323 43.7326 38.112 43.73Z" fill="white"/>
</svg>
