<svg width="80" height="64" viewBox="0 0 80 64" fill="none" xmlns="http://www.w3.org/2000/svg">
<path d="M40.655 59H1C2.399 56.826 3.129 54.237 3.088 51.597V37.562C3.085 29.522 9.17 23.003 16.68 23H40.654C48.166 23.003 54.251 29.524 54.248 37.563V44.437C54.251 52.476 48.166 58.995 40.655 59Z" fill="white"/>
<path d="M13.6133 35H44.4413V36.655H13.6133V35ZM13.6133 40.921H42.7843V42.577H13.6133V40.921ZM13.6133 46.845H39.3293V48.5H13.6133V46.845Z" fill="#374146"/>
<path d="M47.8076 30.5H78.0706C77.0036 28.9619 76.4463 27.1277 76.4776 25.256V15.315C76.4796 9.62 71.8356 5.002 66.1036 5H47.8076C42.0756 5.002 37.4306 9.621 37.4336 15.316V20.184C37.4316 25.879 42.0756 30.496 47.8076 30.5Z" fill="#374146"/>
<path d="M48.6445 14H65.4605V15.875H48.6445V14ZM48.6445 19.625H63.9315V21.5H48.6445V19.625Z" fill="white"/>
</svg>
