<svg width="62" height="63" viewBox="0 0 62 63" fill="none" xmlns="http://www.w3.org/2000/svg">
<path fill-rule="evenodd" clip-rule="evenodd" d="M20.6836 62.0237L20.6655 61.9951C19.1796 59.5696 17.5298 57.2484 15.7276 55.0477C14.996 54.1575 14.2033 53.7229 13.5175 53.7229C12.868 53.7229 12.3141 54.1126 12.0027 54.8748C11.5061 56.0897 11.0285 57.1279 10.7964 57.6923C10.2434 59.0342 8.78214 59.7964 7.09543 59.7964C6.33804 59.7964 5.53575 59.6436 4.74971 59.3198C2.21201 58.2759 0.800373 55.8538 1.59788 53.9073C1.94267 53.0763 3.56729 51.531 5.51856 50.1194C7.33325 48.8061 7.62264 46.7756 5.85858 45.3954C3.98665 43.9329 2.03354 42.5774 0.00859572 41.3353L0.00286554 41.3324L0 41.3286C2.42497 39.8439 4.74467 38.1937 6.94261 36.3898C8.66466 34.9801 8.68376 33.3373 7.1556 32.684C6.86757 32.5661 6.5804 32.446 6.2941 32.324C5.53957 32.003 4.89775 31.7156 4.46031 31.5293C4.38855 31.4986 4.3166 31.4684 4.24446 31.4386C2.3419 30.6096 1.64086 27.9315 2.67237 25.4157C3.51858 23.3594 5.27024 22.0414 6.9407 22.0414C7.33038 22.0414 7.71624 22.113 8.08491 22.2649L8.1021 22.2725C8.93877 22.6316 10.4707 24.2467 11.8728 26.1855C12.3552 26.8503 12.933 27.3097 13.5395 27.5389C13.8327 27.6497 14.1316 27.706 14.4315 27.706C15.2023 27.706 15.9673 27.3288 16.5968 26.5236C18.0596 24.6517 19.4155 22.6986 20.6578 20.6737L20.6607 20.6689L20.6693 20.666L20.6836 20.6756C22.7053 21.9159 24.6552 23.2695 26.5241 24.73C27.4438 25.4501 27.8058 26.346 27.6835 27.2256C27.5708 28.0327 27.0513 28.8264 26.1821 29.4567C24.2337 30.8655 22.6101 32.409 22.2643 33.2418C22.1707 33.472 22.1067 33.7098 22.0733 33.9505C21.8173 35.7423 23.1793 37.7327 25.4161 38.6544C26.1595 38.9634 26.9559 39.1249 27.7609 39.13C29.4486 39.13 30.9099 38.3688 31.4619 37.0269C31.6959 36.4614 32.1716 35.4223 32.6682 34.2093C32.9786 33.4452 33.5316 33.0556 34.1811 33.0556C34.8668 33.0556 35.6615 33.4911 36.3902 34.3831C38.1932 36.5837 39.8443 38.9046 41.3319 41.3296L41.3348 41.3401L41.3415 41.3668C40.0989 43.3937 38.7411 45.3475 37.2746 47.2187C36.6452 48.0248 35.8802 48.403 35.1104 48.403C34.1925 48.403 33.2671 47.8672 32.5507 46.8797C31.141 44.9313 29.5976 43.3009 28.7647 42.9618C28.4018 42.8136 28.0134 42.738 27.6215 42.7393C25.9519 42.7393 24.1993 44.0573 23.3522 46.1127C22.3111 48.6533 23.037 51.3591 24.9797 52.1604C25.5451 52.3925 26.5871 52.8662 27.7972 53.3648C29.3683 54.0057 29.3588 55.6666 27.6224 57.0878C25.4247 58.8893 23.1064 60.5385 20.6836 62.0237Z" fill="#374146"/>
<path fill-rule="evenodd" clip-rule="evenodd" d="M41.3172 41.3271L41.3143 41.3166C39.8267 38.892 38.1756 36.5714 36.3726 34.3711C35.642 33.4791 34.8483 33.0436 34.1625 33.0436C33.5131 33.0436 32.961 33.4332 32.6496 34.1964C32.153 35.4093 31.6774 36.4494 31.4443 37.0139C30.8913 38.3558 29.431 39.117 27.7433 39.117C26.9859 39.117 26.1836 38.9642 25.3976 38.6414C23.1607 37.7207 21.7988 35.7293 22.0547 33.9375C22.0891 33.7064 22.1522 33.4781 22.2429 33.2565C22.5867 32.4237 24.2113 30.8803 26.1626 29.4686C27.0403 28.8325 27.5609 28.0293 27.665 27.2136C27.7872 26.333 27.4262 25.4371 26.5055 24.717C24.637 23.2566 22.6874 21.903 20.666 20.6626C21.9085 18.6379 23.264 16.6849 24.7261 14.8126C25.1903 14.2195 25.7271 13.8585 26.2858 13.7095C26.4797 13.6589 26.6755 13.635 26.8732 13.635C27.7911 13.635 28.7185 14.1708 29.4348 15.1584C30.8436 17.1068 32.3879 18.7314 33.2198 19.0762C33.5885 19.2271 33.9744 19.2987 34.364 19.2987C34.6534 19.2987 34.9447 19.2605 35.2332 19.1841C36.62 18.8269 37.9476 17.6283 38.6515 15.9205C39.6925 13.38 38.9667 10.6742 37.024 9.87381C36.4576 9.64077 35.4194 9.16513 34.2065 8.66848C32.6391 8.0257 32.6439 6.36669 34.3812 4.94646C36.5788 3.14228 38.8982 1.49178 41.3229 0.00668569L41.3219 0.00573059L41.3449 0C43.3716 1.24223 45.3251 2.60008 47.1958 4.06681C48.9637 5.44406 48.6743 7.47365 46.8577 8.79073C44.9093 10.1995 43.2789 11.7439 42.9408 12.5758C42.1424 14.5213 43.554 16.9444 46.0917 17.9883C46.8351 18.2974 47.6314 18.459 48.4365 18.464C50.1241 18.464 51.5854 17.7028 52.1384 16.3618C52.3715 15.7964 52.8452 14.7544 53.3438 13.5433C53.6542 12.7802 54.2072 12.3895 54.8557 12.3895C55.5424 12.3895 56.3361 12.826 57.0658 13.719C58.8671 15.917 60.5162 18.2353 62.0017 20.6578L61.9731 20.675C59.5476 22.1613 57.2264 23.8114 55.0257 25.6138C53.2912 27.0369 53.2865 28.6959 54.8528 29.3387C56.0677 29.8354 57.1059 30.3129 57.6704 30.5441C59.614 31.3454 60.3408 34.0512 59.2979 36.5908C58.4516 38.6471 56.7 39.9642 55.0305 39.9652C54.6381 39.9662 54.2494 39.8903 53.8863 39.7417C53.0544 39.3978 51.51 37.7742 50.0974 35.8219C49.383 34.8363 48.4575 34.3005 47.5396 34.3005C46.7689 34.3005 46.0038 34.6777 45.3735 35.4829C43.9121 37.3534 42.5575 39.3049 41.3162 41.3281L41.3172 41.3271Z" fill="white"/>
</svg>
