<svg width="139" height="48" viewBox="0 0 139 48" fill="none" xmlns="http://www.w3.org/2000/svg">
<g id="logo_druzya">
<path id="Shape" fill-rule="evenodd" clip-rule="evenodd" d="M4.94037 5.94585H1.97266V0.0195312H4.94037V5.94585ZM4.94141 8.94922H7.90912V47.5386H4.94141V26.7555V8.94922ZM37.5693 8.94922H34.6016V47.5386H37.5693V26.7555V8.94922ZM40.5341 0.0195312V5.94585H37.5664V0.0195312H40.5341Z" fill="#E4E4E5"/>
<path id="Shape_2" fill-rule="evenodd" clip-rule="evenodd" d="M10.8789 5.94585H13.8466V0.0195312H10.8789V5.94585ZM16.8024 8.94922H13.8438V26.7555V47.5386H16.8024V8.94922ZM7.91016 8.94922H10.8779V26.7555V47.5386H7.91016V8.94922ZM4.94298 8.94922H1.98438V26.7555H4.94298V8.94922ZM19.7734 8.94922H22.7411V26.7555H19.7734V8.94922ZM28.6747 8.94922H25.707V47.5386H28.6747V26.7555V8.94922ZM37.5703 8.94922H40.538V26.7555H37.5703V8.94922ZM34.6005 8.94922H31.6328V26.7555V47.5386H34.6005V8.94922ZM31.6344 0.0195312V5.94585H28.6758V0.0195312H31.6344Z" fill="#9CD1CE"/>
<path id="Shape_3" fill-rule="evenodd" clip-rule="evenodd" d="M19.7695 5.94585H22.7372V0.0195312H19.7695V5.94585ZM13.8427 8.94922H10.875V26.7555H13.8427V8.94922ZM22.7344 8.94922H25.7021V47.5386H22.7344V26.7555V8.94922ZM19.7685 8.94922H16.8008V47.5386H19.7685V26.7555V8.94922ZM31.6305 8.94922V26.7555H28.6719V8.94922H31.6305Z" fill="#4D79BC"/>
<path id="Layer1_0_1_STROKES" d="M59.517 0V47.5198" stroke="#C9CACB" stroke-width="0.75"/>
<path id="Shape_4" fill-rule="evenodd" clip-rule="evenodd" d="M86.2142 14.8008C85.6923 14.8069 85.2341 14.9252 84.8396 15.1558C84.4451 15.3925 84.1386 15.7111 83.9201 16.1117C83.6956 16.5062 83.5803 16.9583 83.5742 17.4681C83.5803 17.9961 83.6956 18.4573 83.9201 18.8518C84.1508 19.2523 84.4633 19.5649 84.8578 19.7894C85.2523 20.014 85.7044 20.1263 86.2142 20.1263C86.7179 20.1263 87.167 20.011 87.5615 19.7803C87.956 19.5558 88.2685 19.2432 88.4992 18.8427C88.7298 18.4421 88.8451 17.9839 88.8451 17.4681C88.8451 16.934 88.7298 16.4697 88.4992 16.0753C88.2685 15.6747 87.956 15.3622 87.5615 15.1376C87.167 14.9191 86.7179 14.8069 86.2142 14.8008ZM104.686 25.2795C104.237 25.5041 103.879 25.8015 103.612 26.1717L104.413 27.1093C104.637 26.8119 104.88 26.5934 105.141 26.4539C105.402 26.3143 105.696 26.2445 106.024 26.2445C106.364 26.2445 106.64 26.3264 106.853 26.4903C107.071 26.6541 107.183 26.906 107.189 27.2459C107.183 27.4704 107.126 27.6585 107.016 27.8103C106.913 27.9681 106.774 28.0864 106.598 28.1653C106.428 28.2503 106.243 28.2928 106.042 28.2928H105.269V29.6036H106.088C106.549 29.6097 106.898 29.7038 107.135 29.8858C107.371 30.074 107.49 30.3289 107.49 30.6505C107.49 30.9236 107.42 31.1452 107.28 31.3151C107.147 31.4911 106.968 31.6216 106.743 31.7065C106.525 31.7854 106.285 31.8249 106.024 31.8249C105.696 31.8249 105.363 31.7338 105.023 31.5518C104.683 31.3697 104.385 31.136 104.131 30.8508L103.375 31.7976C103.509 32.016 103.7 32.2254 103.949 32.4257C104.197 32.632 104.501 32.7989 104.859 32.9264C105.211 33.0599 105.624 33.1297 106.097 33.1358C106.582 33.1297 107.038 33.0356 107.462 32.8536C107.875 32.6654 108.215 32.3954 108.482 32.0434C108.737 31.6914 108.867 31.2726 108.873 30.7871C108.88 30.3258 108.773 29.9253 108.555 29.5854C108.33 29.2577 107.978 29.0271 107.499 28.8936V28.8663C107.869 28.6417 108.139 28.3716 108.309 28.0561C108.485 27.7465 108.573 27.434 108.573 27.1184C108.567 26.645 108.464 26.2475 108.264 25.9259C108.063 25.5981 107.784 25.3524 107.426 25.1885C107.068 25.0186 106.655 24.9336 106.188 24.9336C105.636 24.9397 105.135 25.055 104.686 25.2795ZM92.1696 26.3512C91.9814 25.9628 91.6628 25.6472 91.2137 25.4045C90.7646 25.1678 90.1517 25.0434 89.3748 25.0312C89.2352 25.0312 89.0623 25.0343 88.8559 25.0404C88.6496 25.0404 88.4341 25.0434 88.2096 25.0495C87.985 25.0495 87.7757 25.0525 87.5815 25.0586H87.1172V33.0058H88.5191V30.1383C88.6951 30.1504 88.8772 30.1595 89.0653 30.1656H89.5478C90.179 30.1595 90.71 30.0351 91.1409 29.7923C91.5718 29.5556 91.8965 29.2461 92.115 28.8638C92.3395 28.4754 92.4518 28.0505 92.4518 27.5893C92.4579 27.1463 92.3638 26.7336 92.1696 26.3512ZM78.5131 26.6634L78.595 25.0703H83.52V31.6976H84.6033V34.4286H83.2924V33.0085H77.7393V34.4286H76.4375V31.6976H77.2841C77.3994 31.5641 77.5451 31.2879 77.7211 30.8692C77.891 30.4504 78.0518 29.8891 78.2036 29.1851C78.3553 28.4871 78.4585 27.6466 78.5131 26.6634ZM82.1352 26.3789H79.9413L79.823 27.7535C79.7684 28.4454 79.6804 29.0644 79.559 29.6106C79.4376 30.1568 79.3071 30.612 79.1675 30.9761C79.034 31.3342 78.9157 31.5739 78.8125 31.6953H82.1352V26.3789ZM117.138 30.2957C117.138 29.7737 117.032 29.3186 116.819 28.9302C116.607 28.5539 116.279 28.2595 115.836 28.0471C115.393 27.8347 114.829 27.7285 114.143 27.7285C114.034 27.7285 113.9 27.7315 113.742 27.7376C113.585 27.7437 113.418 27.7589 113.242 27.7831V25.0703H111.84V33.0085C112.083 33.0085 112.38 33.0115 112.732 33.0176C113.09 33.0237 113.463 33.0267 113.852 33.0267C114.908 33.0206 115.718 32.7748 116.282 32.2893C116.853 31.8099 117.138 31.1453 117.138 30.2957ZM115.664 30.3239C115.658 29.8809 115.509 29.5562 115.218 29.3499C114.92 29.1375 114.526 29.0312 114.034 29.0312C113.931 29.0312 113.813 29.0373 113.679 29.0495C113.546 29.0555 113.4 29.0707 113.242 29.095V31.6894C113.364 31.6955 113.488 31.7046 113.615 31.7168C113.743 31.7228 113.873 31.7259 114.007 31.7259C114.523 31.7259 114.929 31.6136 115.227 31.389C115.518 31.1706 115.664 30.8155 115.664 30.3239ZM90.7733 28.3101C90.9007 28.1219 90.9675 27.8792 90.9735 27.5818C90.9735 27.1691 90.8491 26.8596 90.6003 26.6533C90.3515 26.4469 89.9873 26.3438 89.5079 26.3438C89.3683 26.3438 89.2136 26.3468 89.0436 26.3529C88.8798 26.3529 88.7038 26.3589 88.5156 26.3711V28.8017C88.6795 28.8259 88.8433 28.8411 89.0072 28.8472C89.1771 28.8593 89.341 28.8654 89.4988 28.8654C89.778 28.8654 90.0268 28.8199 90.2453 28.7288C90.4698 28.6378 90.6458 28.4982 90.7733 28.3101ZM100.299 25.0703H101.71L99.0059 31.1605C98.7388 31.7674 98.4354 32.2256 98.0955 32.5351C97.7557 32.8507 97.3399 33.0085 96.8483 33.0085C96.642 33.0024 96.4357 32.9721 96.2293 32.9175C96.029 32.8507 95.8712 32.7748 95.7559 32.6899L96.2475 31.5064C96.3507 31.5793 96.4478 31.6308 96.5388 31.6612C96.6299 31.6855 96.73 31.6976 96.8392 31.6976C97.0213 31.6976 97.1791 31.649 97.3126 31.5519C97.4401 31.4488 97.5432 31.3122 97.6221 31.1423L97.7314 30.8783L94.2266 25.0703H95.8015L98.405 29.5037L100.299 25.0703ZM124.241 25.0507L123.504 25.0325C123.255 25.0265 123.045 25.0234 122.875 25.0234C122.099 25.0295 121.47 25.16 120.991 25.4149C120.512 25.6637 120.16 25.9945 119.935 26.4072C119.71 26.8259 119.598 27.2811 119.598 27.7727C119.604 28.1368 119.671 28.4615 119.798 28.7467C119.926 29.032 120.096 29.2778 120.308 29.4841C120.515 29.6844 120.745 29.8482 121 29.9757L118.961 33.0071H120.536L122.311 30.2579H123.458V33.0071H124.842V25.0599C124.684 25.0599 124.484 25.0568 124.241 25.0507ZM122.581 26.3359C122.114 26.342 121.747 26.4664 121.48 26.7092C121.213 26.9519 121.076 27.2766 121.07 27.6832C121.076 27.9199 121.131 28.1263 121.234 28.3023C121.343 28.4783 121.48 28.6209 121.644 28.7301C121.814 28.8394 121.996 28.9122 122.19 28.9486H123.455V26.3724C123.389 26.3663 123.304 26.3602 123.201 26.3541C123.091 26.3481 122.982 26.345 122.873 26.345C122.764 26.339 122.666 26.3359 122.581 26.3359ZM84.5062 16.392C84.3302 16.7015 84.2422 17.0596 84.2422 17.4662C84.2483 17.8607 84.3363 18.2127 84.5062 18.5222C84.6761 18.8317 84.9098 19.0775 85.2071 19.2596C85.5045 19.4416 85.8414 19.5327 86.2176 19.5327C86.6121 19.5327 86.958 19.4416 87.2554 19.2596C87.5467 19.0775 87.7743 18.8317 87.9382 18.5222C88.102 18.2127 88.187 17.8607 88.1931 17.4662C88.187 17.0596 88.099 16.7015 87.9291 16.392C87.7531 16.0825 87.5164 15.8367 87.219 15.6546C86.9216 15.4847 86.5878 15.3967 86.2176 15.3906C85.8353 15.3967 85.4985 15.4847 85.2071 15.6546C84.9098 15.8367 84.6761 16.0825 84.5062 16.392ZM79.0594 14.8203V15.3483C78.5617 15.3544 78.1308 15.4363 77.7667 15.5941C77.3965 15.7519 77.1112 15.9825 76.911 16.286C76.7046 16.5894 76.6014 16.9566 76.6014 17.3875C76.6014 17.8305 76.7046 18.2037 76.911 18.5072C77.1173 18.8046 77.4025 19.0352 77.7667 19.1991C78.1369 19.3508 78.5647 19.4297 79.0503 19.4357H79.0594V20.1185H79.6875V19.4357H79.7057C80.1912 19.4297 80.6191 19.3477 80.9893 19.1899C81.3595 19.0322 81.6478 18.8015 81.8541 18.4981C82.0605 18.1946 82.1667 17.8244 82.1727 17.3875C82.1667 16.9626 82.0635 16.5985 81.8632 16.2951C81.6508 15.9916 81.3595 15.758 80.9893 15.5941C80.6191 15.4363 80.1851 15.3544 79.6875 15.3483V14.8203H79.0594ZM79.0603 15.9375C78.4898 15.9375 78.0498 16.0649 77.7403 16.3198C77.4247 16.5747 77.2639 16.9298 77.2578 17.3849C77.2639 17.7127 77.3397 17.9827 77.4854 18.1951C77.6311 18.4136 77.8374 18.5775 78.1044 18.6867C78.3715 18.796 78.687 18.8506 79.0512 18.8506H79.0603V15.9375ZM79.6966 15.9375C80.2732 15.9375 80.7192 16.0649 81.0348 16.3198C81.3443 16.5747 81.5021 16.9298 81.5082 17.3849C81.5021 17.8705 81.3383 18.2376 81.0166 18.4865C80.701 18.7292 80.261 18.8506 79.6966 18.8506H79.6875V15.9375H79.6966ZM97.8642 15.9128L97.9097 14.875H100.959V19.4631H101.66V21.0107H101.069V20.0548H97.0448V21.0107H96.4531V19.4631H97.0084C97.0873 19.3782 97.1844 19.193 97.2997 18.9078C97.4151 18.6226 97.5273 18.2311 97.6366 17.7335C97.7458 17.2419 97.8217 16.635 97.8642 15.9128ZM98.2493 17.9228C98.3404 17.4979 98.4102 16.9881 98.4587 16.3934L98.5224 15.4648H100.334V19.4612H97.7031C97.776 19.3823 97.8609 19.2124 97.958 18.9514C98.0551 18.6966 98.1522 18.3537 98.2493 17.9228ZM94.208 17.7153H91.3586V20.0548H90.7305V14.875H91.3586V17.1235H94.208V14.875H94.8361V20.0548H94.208V17.7153Z" fill="#A4A6A8"/>
</g>
</svg>
