<svg width="144" height="48" viewBox="0 0 144 48" fill="none" xmlns="http://www.w3.org/2000/svg">
<g id="pgrants logo gark">
<path id="Fill 2" fill-rule="evenodd" clip-rule="evenodd" d="M43.9178 7.35156H23.6483C21.5956 7.35156 19.7618 8.63532 19.0597 10.5643L11.2065 32.1409C10.5018 34.0642 8.67161 35.3438 6.62256 35.3438H26.8921C28.9448 35.3438 30.7786 34.0601 31.4807 32.1311L39.3339 10.5535C40.0391 8.63067 41.8688 7.35156 43.9178 7.35156Z" fill="#C4A16E"/>
<path id="Fill 3" fill-rule="evenodd" clip-rule="evenodd" d="M17.6248 10.0419C18.5428 7.51939 20.9628 5.8253 23.6468 5.8253H25.6699L26.8383 2.61461C27.4142 1.0447 28.9086 0 30.5815 0H14.0276C12.3511 0 10.8537 1.04833 10.2804 2.62392L3.86673 20.2447C3.29134 21.8156 1.79647 22.8609 0.122559 22.8609H12.9591L17.6248 10.0419Z" fill="#DBC8A7"/>
<path id="Fill 4" fill-rule="evenodd" clip-rule="evenodd" d="M49.5219 17.0409H50.1288C50.5402 17.0409 50.9194 17.0973 51.2656 17.2101C51.6118 17.3239 51.9098 17.4916 52.1603 17.7146C52.4102 17.9371 52.6042 18.2103 52.7408 18.5316C52.8785 18.854 52.9468 19.2219 52.9468 19.6322C52.9468 20.0508 52.8712 20.4223 52.7206 20.7483C52.5696 21.0738 52.3657 21.3501 52.109 21.5762C51.8519 21.8023 51.5512 21.9736 51.2092 22.0905C50.8662 22.2069 50.506 22.2649 50.1288 22.2649H49.5219V23.1601H47.9902V22.2649H47.3828C46.9719 22.2649 46.5926 22.2085 46.2465 22.0957C45.9003 21.9824 45.6038 21.8142 45.357 21.5917C45.1102 21.3687 44.9182 21.096 44.7811 20.7742C44.6435 20.4518 44.5757 20.0849 44.5757 19.6741C44.5757 19.255 44.6507 18.8835 44.8018 18.5575C44.9524 18.232 45.1568 17.9557 45.4139 17.7296C45.6706 17.5035 45.9691 17.3327 46.3086 17.2152C46.6475 17.0988 47.0061 17.0409 47.3828 17.0409H47.9902V16.125H49.5219V17.0409ZM47.4345 18.3676C47.003 18.3676 46.6734 18.484 46.4472 18.7174C46.2211 18.9502 46.1078 19.2653 46.1078 19.6638C46.1078 20.0674 46.2258 20.3799 46.4628 20.5993C46.6992 20.8187 47.0232 20.9284 47.4345 20.9284H47.9902V18.3676H47.4345ZM50.0776 20.9382C50.5091 20.9382 50.8382 20.8218 51.0648 20.5884C51.291 20.3556 51.4043 20.0404 51.4043 19.6431C51.4043 19.2384 51.2858 18.9259 51.0493 18.7065C50.8129 18.4871 50.4889 18.3774 50.0776 18.3774H49.5219V20.9382H50.0776Z" fill="#E4E4E3"/>
<path id="Fill 5" fill-rule="evenodd" clip-rule="evenodd" d="M59.3742 16.3977C59.827 16.5798 60.2125 16.8318 60.5317 17.1542C60.8499 17.4765 61.0988 17.8548 61.2768 18.2905C61.4553 18.7262 61.5443 19.1996 61.5443 19.715C61.5443 20.2081 61.4553 20.6728 61.2768 21.1084C61.0988 21.5436 60.8484 21.9239 60.526 22.2499C60.2042 22.5754 59.8187 22.8325 59.369 23.0209C58.9199 23.2092 58.4247 23.3039 57.8835 23.3039C57.3479 23.3039 56.8584 23.2128 56.4124 23.0317C55.9669 22.8491 55.5814 22.5981 55.2554 22.2758C54.93 21.9534 54.678 21.5731 54.5 21.1343C54.3215 20.6955 54.2319 20.2215 54.2319 19.715C54.2319 19.2219 54.3215 18.7546 54.5 18.3158C54.678 17.877 54.93 17.4967 55.2554 17.1749C55.5814 16.852 55.9669 16.5974 56.4124 16.408C56.8584 16.2197 57.3479 16.125 57.8835 16.125C58.4247 16.125 58.922 16.2161 59.3742 16.3977ZM56.9935 17.6783C56.7296 17.7948 56.5066 17.9521 56.325 18.1513C56.1439 18.3505 56.0047 18.5833 55.9084 18.8509C55.8122 19.1179 55.7646 19.4061 55.7646 19.715C55.7646 20.0229 55.8122 20.3126 55.9084 20.5832C56.0047 20.8544 56.1454 21.0888 56.3301 21.2885C56.5154 21.4867 56.7384 21.6435 56.9987 21.7557C57.2595 21.8696 57.5544 21.9255 57.8835 21.9255C58.2193 21.9255 58.5189 21.868 58.7833 21.7506C59.0467 21.6352 59.2702 21.4753 59.4513 21.2735C59.6329 21.0707 59.7706 20.8363 59.8632 20.5682C59.9553 20.3012 60.0019 20.0161 60.0019 19.715C60.0019 19.3993 59.9537 19.106 59.858 18.8348C59.7618 18.5652 59.6231 18.3298 59.4415 18.1316C59.2594 17.9319 59.0369 17.7777 58.7724 17.6685C58.5091 17.5588 58.2126 17.5035 57.8835 17.5035C57.5544 17.5035 57.2574 17.5619 56.9935 17.6783Z" fill="#E4E4E3"/>
<path id="Fill 6" fill-rule="evenodd" clip-rule="evenodd" d="M64.6402 18.9643H67.6538V16.2695H69.2066V23.1608H67.6538V20.3945H64.6402V23.1608H63.0874V16.2695H64.6402V18.9643Z" fill="#E4E4E3"/>
<path id="Fill 7" fill-rule="evenodd" clip-rule="evenodd" d="M77.4422 21.772H78.4403V22.1937L78.3063 24.6003H76.9175L76.8559 23.1608H72.1975L72.1152 24.6003H70.7165L70.6343 22.204V21.7833H70.922C71.0658 21.7833 71.2102 21.7311 71.354 21.6281C71.4979 21.5251 71.6184 21.3642 71.7142 21.1448C71.8994 20.7329 72.0329 20.202 72.1152 19.5506C72.1975 18.8991 72.2383 18.1799 72.2383 17.3908V16.2695H77.4422V21.772ZM73.5759 20.1467C73.459 20.84 73.3011 21.3813 73.1024 21.772H75.8997V17.648H73.7606C73.7534 18.6218 73.6918 19.4554 73.5759 20.1467Z" fill="#E4E4E3"/>
<path id="Fill 8" fill-rule="evenodd" clip-rule="evenodd" d="M50.9465 35.5074H49.3932V30.0463H46.4728V35.5074H44.9194V28.6172H50.9465V35.5074Z" fill="#E4E4E3"/>
<path id="Fill 9" fill-rule="evenodd" clip-rule="evenodd" d="M57.0425 28.7973C57.3783 28.9168 57.6681 29.085 57.9113 29.3012C58.155 29.5165 58.3418 29.7778 58.4722 30.0826C58.602 30.3873 58.6672 30.7288 58.6672 31.1055C58.6672 31.5034 58.5938 31.8579 58.4463 32.1699C58.2988 32.4824 58.0965 32.7463 57.8393 32.9621C57.5822 33.1784 57.2789 33.3434 56.9297 33.4552C56.5794 33.5696 56.2027 33.6254 55.798 33.6254H54.3994V35.5074H52.8569V28.6172H55.9212C56.3326 28.6172 56.7061 28.6772 57.0425 28.7973ZM55.798 32.2579C56.2094 32.2579 56.5318 32.1549 56.7651 31.949C56.9975 31.7441 57.1144 31.4657 57.1144 31.1159C57.1144 30.7733 57.0099 30.5012 56.8008 30.2983C56.5918 30.096 56.2782 29.9956 55.8596 29.9956H54.3994V32.2579H55.798Z" fill="#E4E4E3"/>
<path id="Fill 10" fill-rule="evenodd" clip-rule="evenodd" d="M65.2674 30.0055H61.637V31.3016H64.8762V32.6485H61.637V34.1186H65.4423V35.5074H60.1147V28.6172H65.2674V30.0055Z" fill="#E4E4E3"/>
<path id="Fill 11" fill-rule="evenodd" clip-rule="evenodd" d="M70.6139 31.1256C70.7515 31.0102 70.8203 30.8487 70.8203 30.6433C70.8203 30.382 70.7292 30.1854 70.5476 30.0524C70.366 29.9184 70.069 29.8511 69.6576 29.8511C69.0134 29.8511 68.4101 30.0674 67.8476 30.4995L67.0456 29.4392C67.4295 29.1107 67.8425 28.8669 68.2849 28.7091C68.7268 28.5518 69.2157 28.4727 69.7503 28.4727C70.1621 28.4727 70.5285 28.5213 70.8508 28.617C71.1732 28.7122 71.4474 28.8462 71.6736 29.018C71.8997 29.1898 72.073 29.3937 72.1931 29.6302C72.3126 29.8661 72.3726 30.129 72.3726 30.4172C72.3726 30.7121 72.3126 30.9765 72.1931 31.2135C72.073 31.4505 71.893 31.6363 71.6529 31.7739V31.867C71.982 31.9762 72.2391 32.163 72.4244 32.4269C72.6091 32.6918 72.7017 33.0147 72.7017 33.3992C72.7017 33.7215 72.6386 34.0196 72.5118 34.2943C72.3851 34.5681 72.1962 34.805 71.9457 35.0027C71.6958 35.2019 71.3838 35.3597 71.0102 35.4767C70.6361 35.5931 70.1994 35.651 69.699 35.651C69.3974 35.651 69.1128 35.6324 68.8453 35.5946C68.5777 35.5574 68.3242 35.4969 68.0841 35.4151C67.8445 35.3328 67.6148 35.2283 67.3949 35.1015C67.176 34.9742 66.9597 34.8185 66.7476 34.6327L67.5594 33.5021C67.9165 33.7836 68.2709 33.9823 68.6238 34.0982C68.9772 34.2152 69.3699 34.2736 69.802 34.2736C70.2542 34.2736 70.5916 34.1888 70.8146 34.0216C71.0376 33.854 71.1494 33.632 71.1494 33.3583C71.1494 32.8776 70.8369 32.638 70.2128 32.638H68.4748V31.3015H70.0483C70.2884 31.3015 70.4773 31.243 70.6139 31.1256Z" fill="#E4E4E3"/>
<path id="Fill 12" fill-rule="evenodd" clip-rule="evenodd" d="M75.762 33.2043L79.0938 28.6172H80.4516V35.5074H78.9194V31.178L75.7517 35.5074H74.2397V28.6172H75.762V33.2043Z" fill="#E4E4E3"/>
<path id="Fill 13" fill-rule="evenodd" clip-rule="evenodd" d="M88.6883 34.1186H89.6859V34.5408L89.5519 36.9474H88.1636L88.102 35.5074H83.443L83.3613 36.9474H81.9621L81.8804 34.5506V34.1294H82.1675C82.3119 34.1294 82.4558 34.0787 82.5996 33.9747C82.744 33.8723 82.864 33.7119 82.9597 33.4925C83.145 33.0806 83.2785 32.5492 83.3613 31.8977C83.443 31.2463 83.4839 30.526 83.4839 29.7374V28.6172H88.6883V34.1186ZM84.8215 32.4943C84.7045 33.1867 84.5472 33.7284 84.3485 34.1186H87.1458V29.9956H85.0067C84.9995 30.9684 84.9379 31.8015 84.8215 32.4943Z" fill="#E4E4E3"/>
<path id="Fill 14" fill-rule="evenodd" clip-rule="evenodd" d="M96.2986 30.0055H92.6683V31.3016H95.9075V32.6485H92.6683V34.1186H96.4735V35.5074H91.146V28.6172H96.2986V30.0055Z" fill="#E4E4E3"/>
<path id="Fill 15" fill-rule="evenodd" clip-rule="evenodd" d="M99.6676 31.3115H102.681V28.6172H104.234V35.5074H102.681V32.7412H99.6676V35.5074H98.1147V28.6172H99.6676V31.3115Z" fill="#E4E4E3"/>
<path id="Fill 16" fill-rule="evenodd" clip-rule="evenodd" d="M111.901 30.0153H109.546V35.5074H108.013V30.0153H105.658V28.6172H111.901V30.0153Z" fill="#E4E4E3"/>
<path id="Fill 17" fill-rule="evenodd" clip-rule="evenodd" d="M117.696 30.0524C117.384 29.9386 117.037 29.8816 116.653 29.8816C116.317 29.8816 116.013 29.9349 115.743 30.041C115.472 30.1476 115.24 30.2982 115.048 30.4943C114.856 30.6888 114.709 30.9206 114.606 31.1876C114.503 31.4557 114.452 31.747 114.452 32.0621C114.452 32.3917 114.505 32.6898 114.611 32.9573C114.718 33.2243 114.867 33.4519 115.059 33.6413C115.25 33.8286 115.48 33.9761 115.748 34.0832C116.015 34.1888 116.31 34.2426 116.632 34.2426C117.023 34.2426 117.388 34.1753 117.727 34.0413C118.067 33.9083 118.37 33.7148 118.638 33.4602L119.512 34.5406C118.73 35.2811 117.743 35.651 116.55 35.651C116.015 35.651 115.525 35.5672 115.079 35.3996C114.634 35.2314 114.251 34.9913 113.933 34.6798C113.614 34.3683 113.365 33.9921 113.187 33.5534C113.008 33.1146 112.919 32.6246 112.919 32.0828C112.919 31.5897 113.007 31.1224 113.182 30.6837C113.357 30.2449 113.609 29.8609 113.938 29.5319C114.267 29.2028 114.664 28.944 115.13 28.7557C115.597 28.5668 116.124 28.4727 116.714 28.4727C117.249 28.4727 117.739 28.5534 118.185 28.7138C118.63 28.8757 119.028 29.1107 119.378 29.419L118.525 30.5393C118.284 30.3277 118.008 30.1642 117.696 30.0524Z" fill="#E4E4E3"/>
<path id="Fill 18" fill-rule="evenodd" clip-rule="evenodd" d="M122.461 31.2396L123.212 31.1578L125.156 28.6172H127.058L124.497 31.8362L127.305 35.5074H125.32L123.222 32.5663H122.461V35.5074H120.939V28.6172H122.461V31.2396Z" fill="#E4E4E3"/>
<path id="Fill 19" fill-rule="evenodd" clip-rule="evenodd" d="M130.23 33.2043L133.563 28.6172H134.92V35.5074H133.388V31.178L130.22 35.5074H128.708V28.6172H130.23V33.2043Z" fill="#E4E4E3"/>
<path id="Fill 20" fill-rule="evenodd" clip-rule="evenodd" d="M139.852 31.0755H139.955L141.323 28.6172H143.226L141.025 32.0111L143.442 35.5074H141.447L139.904 32.854H139.801L138.279 35.5074H136.294L138.711 31.9283L136.51 28.6172H138.434L139.852 31.0755Z" fill="#E4E4E3"/>
<path id="Fill 21" fill-rule="evenodd" clip-rule="evenodd" d="M50.1336 42.3635H46.4619V47.855H44.9194V40.9648H50.1336V42.3635Z" fill="#E4E4E3"/>
<path id="Fill 22" fill-rule="evenodd" clip-rule="evenodd" d="M55.7143 41.1439C56.0502 41.2644 56.3399 41.4321 56.5831 41.6484C56.8268 41.8641 57.0136 42.1255 57.144 42.4302C57.2739 42.735 57.3391 43.077 57.3391 43.4537C57.3391 43.8506 57.2656 44.2055 57.1182 44.517C56.9707 44.8301 56.7684 45.0935 56.5112 45.3092C56.254 45.5255 55.9508 45.6901 55.6016 45.8034C55.2518 45.9162 54.8745 45.9726 54.4699 45.9726H53.0713V47.855H51.5288V40.9648H54.5936C55.0044 40.9648 55.378 41.0243 55.7143 41.1439ZM54.4699 44.605C54.8813 44.605 55.2036 44.502 55.437 44.2961C55.6693 44.0907 55.7863 43.8138 55.7863 43.4635C55.7863 43.1205 55.6818 42.8483 55.4727 42.6465C55.2631 42.4437 54.9496 42.3423 54.5315 42.3423H53.0713V44.605H54.4699Z" fill="#E4E4E3"/>
<path id="Fill 23" fill-rule="evenodd" clip-rule="evenodd" d="M65.1997 47.857H63.4921L62.968 46.4889H60.016L59.5022 47.857H57.8257L60.654 40.957H62.3507L65.1997 47.857ZM62.464 45.1322L61.5486 42.5093H61.4457L60.5205 45.1322H62.464Z" fill="#E4E4E3"/>
<path id="Fill 24" fill-rule="evenodd" clip-rule="evenodd" d="M68.1559 43.6586H71.1689V40.9648H72.7222V47.855H71.1689V45.0883H68.1559V47.855H66.603V40.9648H68.1559V43.6586Z" fill="#E4E4E3"/>
<path id="Fill 25" fill-rule="evenodd" clip-rule="evenodd" d="M80.3889 42.3635H78.0335V47.855H76.5014V42.3635H74.146V40.9648H80.3889V42.3635Z" fill="#E4E4E3"/>
<path id="Fill 26" fill-rule="evenodd" clip-rule="evenodd" d="M86.5456 41.0925C86.9983 41.2741 87.3838 41.5261 87.7031 41.8485C88.0213 42.1698 88.2702 42.5496 88.4482 42.9847C88.6267 43.4194 88.7157 43.8949 88.7157 44.4092C88.7157 44.9034 88.6267 45.367 88.4482 45.8027C88.2702 46.2379 88.0197 46.6182 87.6974 46.9442C87.3755 47.2696 86.99 47.5268 86.5404 47.7151C86.0913 47.9045 85.5961 47.9982 85.0548 47.9982C84.5193 47.9982 84.0298 47.9081 83.5838 47.7255C83.1383 47.5444 82.7528 47.2914 82.4268 46.97C82.1013 46.6477 81.8493 46.2663 81.6713 45.8275C81.4928 45.3888 81.4038 44.9169 81.4038 44.4092C81.4038 43.9151 81.4928 43.4494 81.6713 43.0106C81.8493 42.5718 82.1013 42.191 82.4268 41.8686C82.7528 41.5468 83.1383 41.2907 83.5838 41.1033C84.0298 40.914 84.5193 40.8203 85.0548 40.8203C85.5961 40.8203 86.0933 40.9103 86.5456 41.0925ZM84.1649 42.3726C83.901 42.4901 83.6779 42.6474 83.4963 42.8461C83.3147 43.0442 83.176 43.2781 83.0803 43.5451C82.9835 43.8132 82.9359 44.1009 82.9359 44.4092C82.9359 44.7176 82.9835 45.0074 83.0803 45.2785C83.176 45.5492 83.3168 45.7841 83.5015 45.9828C83.6867 46.1809 83.9092 46.3372 84.17 46.4511C84.4308 46.5628 84.7257 46.6197 85.0548 46.6197C85.3906 46.6197 85.6903 46.5613 85.9547 46.4459C86.218 46.3284 86.4416 46.1696 86.6227 45.9667C86.8043 45.7649 86.9419 45.5295 87.034 45.2625C87.1267 44.9955 87.1732 44.7109 87.1732 44.4092C87.1732 44.0936 87.1251 43.8002 87.0294 43.5301C86.9331 43.2585 86.7945 43.0241 86.6128 42.8249C86.4307 42.6262 86.2082 42.4725 85.9438 42.3628C85.6799 42.2531 85.3839 42.1988 85.0548 42.1988C84.7257 42.1988 84.4287 42.2562 84.1649 42.3726Z" fill="#E4E4E3"/>
<path id="Fill 27" fill-rule="evenodd" clip-rule="evenodd" d="M95.081 41.4688C95.496 41.8041 95.7035 42.2636 95.7035 42.8468C95.7035 43.1344 95.6435 43.3916 95.524 43.6177C95.4034 43.8439 95.2404 44.012 95.035 44.1217V44.2138C95.3708 44.3246 95.6404 44.5212 95.8422 44.8053C96.0445 45.0898 96.1459 45.4215 96.1459 45.7982C96.1459 46.0797 96.0962 46.3441 95.9964 46.5956C95.8975 46.845 95.7434 47.0628 95.5338 47.2486C95.3247 47.4328 95.0588 47.5803 94.7369 47.691C94.4146 47.7997 94.0337 47.855 93.5955 47.855H90.2632V40.9648H93.3073C94.0751 40.9648 94.6666 41.1325 95.081 41.4688ZM93.3694 43.6798C93.6296 43.6798 93.8335 43.6162 93.981 43.4889C94.1284 43.3621 94.2019 43.1893 94.2019 42.9694C94.2019 42.5109 93.907 42.2812 93.3176 42.2812H91.7958V43.6798H93.3694ZM93.6157 46.5387C94.2945 46.5387 94.634 46.267 94.634 45.7263C94.634 45.465 94.545 45.2689 94.3665 45.1349C94.1885 45.0014 93.9349 44.9341 93.6058 44.9341H91.7958V46.5387H93.6157Z" fill="#E4E4E3"/>
</g>
</svg>
